<?xml version="1.0" ?>
<svg version="1.1" xmlns="http://www.w3.org/2000/svg" width="300px" height="300px" viewBox="0 0 300 300">
	<path fill="none" stroke="#292929" d="M7.375,99.001c0,0,6.863-13.069,23.073-25.958c0,0,11.204-12.454,13.232-14.811
		c2.026-2.354,2.026-2.354,2.026-2.354S67.681,31.927,76.957,26.3c0,0,6.157-5.112,9.151-8.761c0,0,10.602-9.84,21.202-3.903
		c0,0,5.808,2.049,14.245,2.972c0,0,20.469,5.393,26.416,8.845c0,0,4.068,1.646,8.18,2.347c0,0,7.234,2.304,9.729,7.856
		c0,0,6.229,10.509,6.695,12.454c0,0,3.424,5.203,5.766,6.836c0,0,9.24,9.367,9.813,15.784L264,71.105 M7.375,99.001" />
	<path fill="none" stroke="#292929" d="M8.04,97.954c0,0,12.413-11.717,38.383,5.783c0,0,22.302,14.11,18.139,25.895
		c0,0,2.838-19.502,19.344-18.979c0,0,17.417,3.626,37.908-10.213c0,0,6.951-0.901,12.012-4.008c0,0,5.656-1.874,6.615-1.439
		c0,0-5.724,16.085,9.031,17.935c0,0,6.024,1.567,7.344-4.766c0,0,2.229,2.735,5.017,3.807l-0.514,32.673 M8.04,97.954" />
	<path fill="none" stroke="#292929" d="M160.819,60.509c-11.071-4.04-12.548-13.555-12.548-13.555
		c-9.538,4.929-24.077-3.367-24.077-3.367c-4.19,7.156-11.324,5.471-11.324,5.471l7.56,16.502l0.831,1.146
		c14.962,3.098,34.825-0.828,34.825-0.828c21.333-2.493,19.9,16.874,19.9,16.874c-1.746,15.378-24.471,12.43-24.471,12.43
		c-1.481,0.296-11.076-0.189-11.076-0.189 M160.819,60.509" />
	<path fill="none" stroke="#292929" d="M161.763,65.455c0,0-2.245-2.07-1.034-4.314 M161.763,65.455" />
	<path fill="none" stroke="#292929" d="M160.435,60.719c0,0,4.258,1.44,9.078-3.694 M160.435,60.719" />
	<path fill="none" stroke="#292929" d="M147.88,46.967c0,0,2.723-2.618,4.071-6.243 M147.88,46.967" />
	<path fill="none" stroke="#292929" d="M124.195,43.586c0,0-3.724-4.761-3.487-6.769 M124.195,43.586" />
	<path fill="none" stroke="#292929" d="M172.196,70.263l15.958,0.468 M172.196,70.263" />
	<path fill="none" stroke="#292929" d="M185.943,70.504c0,0-4.919-7.223-3.572-10.849 M185.943,70.504" />
	<path fill="none" stroke="#292929" d="M144.244,67.167c0,0-8.365-5.126-4.632-11.904c0,0,1.392-3.509,4.44-3.866 M144.244,67.167" />
	<path fill="none" stroke="#292929" d="M128.908,67.463c0,0-0.605-4.414,4.12-6.992 M128.908,67.463" />
	<path fill="none" stroke="#292929" d="M138.261,57.829c0,0-1.943,3.454-14.455-2.295l-2.947-2.001 M138.261,57.829" />
	<path fill="none" stroke="#292929" d="M118.942,61.613c0,0,3.99-6.281,0.532-13.326 M118.942,61.613" />
	<path fill="none" stroke="#292929" d="M128.786,65.385c0,0-8.402-3.985-9.005-5.413 M128.786,65.385" />
	<path fill="none" stroke="#292929" d="M120.573,66.104c0,0-0.882,1.526-6.82-1.732 M120.573,66.104" />
	<path fill="none" stroke="#292929" d="M120.212,64.98c0,0-6.612-3.468-13.143-12.669 M120.212,64.98" />
	<path fill="none" stroke="#292929" d="M112.62,48.754l-8.162-16.868 M112.62,48.754" />
	<path fill="none" stroke="#292929" d="M163.564,91.292c0,0-2.676,1.676-6.231-2.816c0,0-4.062-7.416-2.411-13.407
		c0,0,0.897-4.983,4.02-5.497c0,0,3.991-2.01,7.518-0.461l0.32,0.151c3.605,1.821,4.862,2.867,6.204,7.997
		c0,0,2.27,5.838-2.325,10.692C170.658,87.95,167.291,91.143,163.564,91.292L163.564,91.292z" />
	<path fill="none" stroke="#292929" d="M143.052,89.627c0,0-6.034-7.725-1.312-16.275 M143.052,89.627" />
	<path fill="none" stroke="#292929" d="M84.611,110.65c0,0-1.961,0.652-11.271-3.166 M84.611,110.65" />
	<path fill="none" stroke="#292929" d="M110.562,99.786c0,0,6.683,2.248,11.893,0.364 M110.562,99.786" />
	<path fill="none" stroke="#292929" d="M156.815,108.161c0,0-3.817-7.177-3.356-12.743 M156.815,108.161" />
	<path fill="none" stroke="#292929" d="M161.59,111.791l0.183-16.594 M161.59,111.791" />
	<polygon fill="none" stroke="#292929" points="218.264,127.19 218.264,126.538 217.695,126.217 189.834,110.282 188.154,109.321 
		188.154,111.258 188.154,185.577 188.154,186.232 188.719,186.554 216.58,202.488 218.264,203.453 218.264,201.514" />
	<polygon fill="none" stroke="#292929" points="258.028,141.749 258.592,141.419 286.32,125.257 287.991,124.28 286.312,123.312 
		221.95,86.15 221.384,85.823 220.82,86.152 193.093,102.315 191.419,103.291 193.096,104.258 257.466,141.421" />
	<polygon fill="none" stroke="#292929" points="225.301,168.45 224.737,168.775 224.739,169.426 224.874,201.518 224.886,203.458 
		226.562,202.486 290.929,165.328 291.492,165.004 291.489,164.353 291.356,132.255 291.346,130.314 289.671,131.285" />
	<polygon fill="none" stroke="#292929" points="224.73,162.373 224.73,129.059 254.682,145.716" />
</svg>