<?xml version="1.0"?>
<svg version="1.1" xmlns="http://www.w3.org/2000/svg" width="300px" height="300px" viewBox="0 0 300 300">
<g id="window">
	<path fill="none" stroke="#292929" d="M210.99,277.711l31.478,4.561v-30.117H210.99V277.711z M210.99,247.85h31.478V217.73
		l-31.478,4.559V247.85z M246.77,282.893l42.24,6.117v-36.855h-42.24V282.893z M246.77,217.107v30.742h42.24V210.99L246.77,217.107z
		"/>
</g>
<g id="android">
	<path fill="none" stroke="#292929" d="M160.59,216.916l0.867-1.302l0.854-1.28l1.919-2.878c0.235-0.353,0.14-0.831-0.212-1.065
		c-0.354-0.238-0.832-0.143-1.067,0.213l-2.058,3.086l-0.865,1.298l-0.876,1.312c-2.779-1.076-5.879-1.681-9.151-1.681
		c-3.269,0-6.372,0.604-9.149,1.681l-0.877-1.312l-0.861-1.298l-2.062-3.086c-0.234-0.353-0.711-0.45-1.065-0.213
		c-0.352,0.234-0.45,0.713-0.214,1.065l1.919,2.878l0.856,1.28l0.864,1.302c-6.528,3.04-10.944,8.801-10.944,15.395h43.071
		C171.537,225.717,167.12,219.956,160.59,216.916z M140.771,226.156c-1.273,0-2.308-1.032-2.308-2.307
		c0-1.275,1.034-2.307,2.308-2.307s2.309,1.031,2.309,2.307C143.079,225.124,142.044,226.156,140.771,226.156z M159.229,226.156
		c-1.273,0-2.307-1.032-2.307-2.307c0-1.275,1.033-2.307,2.307-2.307c1.276,0,2.308,1.031,2.308,2.307
		C161.537,225.124,160.506,226.156,159.229,226.156z"/>
	<path fill="none" stroke="#292929" d="M128.798,235.387h-0.332v3.839v3.13v26.874c0,2.687,2.182,4.873,4.869,4.873h3.518
		c-0.117,0.407-0.186,0.837-0.186,1.282v0.255v1.539v7.948c0,2.549,2.068,4.614,4.613,4.614c2.551,0,4.619-2.065,4.619-4.614v-7.948
		v-1.539v-0.255c0-0.445-0.068-0.875-0.186-1.282h8.572c-0.116,0.407-0.185,0.837-0.185,1.282v0.255v1.539v7.948
		c0,2.549,2.068,4.614,4.615,4.614c2.55,0,4.617-2.065,4.617-4.614v-7.948v-1.539v-0.255c0-0.445-0.067-0.875-0.185-1.282h3.516
		c2.688,0,4.872-2.187,4.872-4.873v-26.874v-3.13v-3.839h-0.332H128.798z"/>
	<path fill="none" stroke="#292929" d="M120.772,235.387c-2.551,0-4.615,2.065-4.615,4.615v19.741c0,2.549,2.064,4.616,4.615,4.616
		c2.548,0,4.615-2.067,4.615-4.616v-19.741C125.388,237.452,123.32,235.387,120.772,235.387z"/>
	<path fill="none" stroke="#292929" d="M179.229,235.387c-2.55,0-4.615,2.065-4.615,4.615v19.741c0,2.549,2.065,4.616,4.615,4.616
		s4.613-2.067,4.613-4.616v-19.741C183.843,237.452,181.779,235.387,179.229,235.387z"/>
</g>
<g id="apple">
	<path fill="none" stroke="#292929" d="M71.312,252.449c-0.1-9.891,8.064-14.633,8.43-14.872
		c-4.586-6.706-11.734-7.629-14.277-7.732c-6.079-0.617-11.864,3.58-14.949,3.58c-3.078,0-7.84-3.49-12.881-3.401
		c-6.63,0.1-12.74,3.856-16.154,9.792c-6.885,11.945-1.761,29.646,4.949,39.342c3.281,4.739,7.193,10.07,12.324,9.875
		c4.946-0.197,6.813-3.199,12.789-3.199c5.981,0,7.66,3.199,12.892,3.1c5.319-0.098,8.691-4.83,11.946-9.588
		c3.767-5.504,5.316-10.835,5.408-11.104C81.669,268.185,71.417,264.257,71.312,252.449z"/>
	<path fill="none" stroke="#292929" d="M61.479,223.43c2.723-3.306,4.565-7.896,4.064-12.467c-3.928,0.156-8.683,2.609-11.503,5.909
		c-2.524,2.931-4.733,7.595-4.144,12.083C54.28,229.295,58.751,226.726,61.479,223.43z"/>
</g>
<g id="opera">
	<path fill="none" stroke="#292929" d="M276.778,121.125c7.087,7.246,10.634,16.767,10.634,28.565
		c0,10.763-3.547,20.129-10.634,28.098c-7.092,7.966-16.066,11.953-26.935,11.953c-10.766,0-19.662-3.987-26.7-11.953
		c-7.04-7.969-10.556-17.335-10.556-28.098c0-11.799,3.467-21.319,10.4-28.565c6.932-7.242,15.886-10.866,26.855-10.866
		C260.712,110.259,269.687,113.883,276.778,121.125z M263.195,137.736c-0.311-3.208-0.932-6.338-1.862-9.393
		c-0.932-3.052-2.357-5.406-4.27-7.063c-1.917-1.654-4.323-2.483-7.22-2.483c-2.9,0-5.277,0.804-7.141,2.406
		c-1.862,1.605-3.236,3.959-4.113,7.063c-0.88,3.104-1.475,6.21-1.785,9.314c-0.311,3.105-0.466,6.883-0.466,11.333
		c0,2.794,0.052,5.148,0.155,7.063c0.101,1.914,0.284,4.243,0.543,6.985c0.256,2.742,0.673,5.045,1.242,6.908
		c0.566,1.862,1.343,3.7,2.328,5.511c0.98,1.812,2.252,3.183,3.804,4.114c1.552,0.931,3.36,1.396,5.433,1.396
		c2.068,0,3.905-0.466,5.513-1.396c1.601-0.932,2.895-2.303,3.881-4.114c0.98-1.811,1.785-3.648,2.406-5.511
		c0.62-1.863,1.086-4.166,1.396-6.908s0.489-5.097,0.544-7.063c0.049-1.966,0.077-4.295,0.077-6.985
		C263.661,144.671,263.506,140.944,263.195,137.736z"/>
</g>
<g id="html5">
	<polygon fill="none" stroke="#292929" enable-background="new    " points="130.674,117.605 133.939,117.605 133.939,121.182 
		137.51,121.182 137.51,110.5 133.939,110.5 133.939,114.029 130.674,114.029 130.674,110.5 127.104,110.5 127.104,121.182 
		130.674,121.182 	"/>
	<polygon fill="none" stroke="#292929" enable-background="new    " points="142.203,121.182 145.773,121.182 145.773,114.045 
		148.916,114.045 148.916,110.5 139.062,110.5 139.062,114.045 142.203,114.045 	"/>
	<polygon fill="none" stroke="#292929" enable-background="new    " points="153.975,115.889 156.434,119.686 156.492,119.686 
		158.949,115.889 158.949,121.182 162.506,121.182 162.506,110.5 158.781,110.5 156.492,114.259 154.205,110.5 150.482,110.5 
		150.482,121.182 153.975,121.182 	"/>
	<polygon fill="none" stroke="#292929" enable-background="new    " points="172.873,117.652 167.852,117.652 167.852,110.5 
		164.281,110.5 164.281,121.182 172.873,121.182 	"/>
	<path fill="none" stroke="#292929" enable-background="new    " d="M121.959,125.869l5.105,57.268l22.92,6.363l22.941-6.359
		l5.115-57.271H121.959z M166.963,144.596h-16.965h-9.914l0.641,7.193h9.273h16.326l-1.926,21.57l-14.4,3.988l-0.01,0.004
		l-14.389-3.992l-1.004-11.281h7.049l0.523,5.852l7.822,2.115l0.008-0.002l0,0l7.832-2.117l0.816-9.109h-8.648l0,0h-15.695
		l-1.896-21.24h17.592h17.594L166.963,144.596z"/>
</g>
<g id="safari">
	<path fill="none" stroke="#292929" d="M76.312,126.172c7.296,7.295,10.944,16.066,10.944,26.312s-3.648,19.016-10.944,26.312
		S60.245,189.74,50,189.74c-10.246,0-19.017-3.646-26.312-10.943c-7.297-7.297-10.944-16.066-10.944-26.312
		c0-8.383,2.534-15.887,7.606-22.51c5.068-6.622,11.538-11.073,19.404-13.351v-0.155c-1.347-0.311-2.123-1.033-2.328-2.174
		c-0.21-0.826,0.023-1.629,0.698-2.406c0.672-0.775,1.576-1.266,2.717-1.475c0.411-0.102,0.827-0.154,1.242-0.154
		c2.068,0,3.26,0.775,3.57,2.328c0.311,1.035-0.104,1.967-1.242,2.795c0,0.104,0.051,0.207,0.155,0.311
		c1.758-0.311,3.57-0.467,5.434-0.467C60.245,115.227,69.017,118.875,76.312,126.172z M78.253,152.484
		c0-1.242-0.104-2.484-0.311-3.727l-6.209-0.932l5.433-3.26c-1.347-4.656-3.726-8.693-7.141-12.107
		c-5.589-5.484-12.264-8.229-20.025-8.229c-1.242,0-2.484,0.104-3.726,0.311l-0.932,6.21l-3.26-5.434
		c-4.657,1.347-8.693,3.726-12.108,7.142c-5.488,5.588-8.228,12.264-8.228,20.025c0,1.242,0.101,2.484,0.31,3.725l6.21,0.932
		l-5.434,3.26c1.343,4.658,3.726,8.693,7.142,12.109c5.588,5.486,12.264,8.227,20.025,8.227c1.242,0,2.483-0.102,3.726-0.309
		l0.932-6.211l3.26,5.434c4.657-1.344,8.693-3.725,12.108-7.141C75.51,166.922,78.253,160.246,78.253,152.484z M57.762,148.447
		v0.156l9.314,0.311l-8.383,3.881c0,1.139-0.26,2.277-0.776,3.414l3.57,3.727l-4.968-1.707c-0.726,0.828-1.606,1.5-2.639,2.018
		l-0.311,9.314l-3.881-8.383c-1.347-0.104-2.589-0.414-3.726-0.932L30.75,171.734l11.488-15.215v-0.154l-9.314-0.311l8.383-3.881
		c0-1.139,0.256-2.275,0.776-3.416l-3.57-3.725l4.967,1.707c0.723-0.828,1.604-1.5,2.64-2.018l0.311-9.314l3.881,8.383
		c1.343,0.104,2.585,0.414,3.726,0.932l15.213-11.488L57.762,148.447z M40.064,115.227c0.411-0.621,0.955-1.009,1.63-1.164
		c0.672-0.154,1.32-0.024,1.94,0.389c0.723-0.518,1.032-1.087,0.932-1.708c-0.209-0.827-1.036-1.241-2.483-1.241
		c-0.311,0-0.621,0.053-0.932,0.154c-0.83,0.104-1.502,0.415-2.019,0.932c-0.52,0.52-0.726,0.984-0.62,1.396
		C38.718,114.605,39.234,115.021,40.064,115.227z M43.79,148.447c-1.141,1.762-1.502,3.625-1.086,5.59
		c0.101,0.414,0.256,0.879,0.465,1.396l4.191-5.588l5.589-4.191c-0.621-0.311-1.296-0.518-2.018-0.621c-0.311,0-0.621,0-0.932,0
		c-0.521,0-1.036,0.053-1.553,0.154C46.479,145.602,44.928,146.688,43.79,148.447z M56.83,155.434
		c0.621-1.447,0.776-2.949,0.466-4.502c-0.104-0.412-0.26-0.879-0.466-1.396l-4.191,5.588l-5.588,4.191
		c0.62,0.311,1.292,0.52,2.018,0.621c0.311,0,0.621,0,0.932,0c0.516,0,1.032-0.053,1.553-0.156c0.826-0.207,1.603-0.516,2.328-0.93
		C55.224,158.021,56.209,156.883,56.83,155.434z"/>
</g>
<g id="ie">
	<path fill="none" stroke="#292929" d="M239.288,55.715v0.154c0,2.483,0.567,4.865,1.708,7.142c1.343,2.38,3.183,4.268,5.511,5.665
		c2.329,1.396,4.913,2.096,7.762,2.096c2.847,0,5.434-0.699,7.763-2.096c2.328-1.397,4.162-3.285,5.511-5.665h18.473
		c-2.383,6.729-6.52,12.237-12.419,16.532c-5.898,4.295-12.524,6.441-19.87,6.441c-5.487,0-10.66-1.189-15.523-3.57
		c-10.867,5.279-18.684,5.535-23.441,0.776c-1.655-1.552-2.483-4.138-2.483-7.761c0-3.622,0.698-7.658,2.096-12.109
		c1.396-4.447,3.726-9.34,6.985-14.67c3.26-5.329,7.115-10.168,11.565-14.515c2.585-2.69,4.243-4.347,4.968-4.968
		c-6.419,3.105-12.212,7.918-17.387,14.438c1.862-7.554,5.873-13.764,12.03-18.629c6.155-4.863,13.219-7.296,21.19-7.296
		c0.828,0,1.653,0.054,2.483,0.155c5.796-2.586,11.071-4.036,15.835-4.347c4.758-0.311,8.121,0.466,10.09,2.329
		c3.931,4.035,4.293,10.35,1.087,18.938c2.999,5.278,4.502,10.971,4.502,17.076c0,1.45-0.055,2.743-0.155,3.882h-18.318H239.288z
		 M236.028,81.174c-6.934-4.243-11.798-10.193-14.592-17.854c-4.657,9.108-5.278,15.369-1.863,18.783
		C222.574,85.105,228.057,84.795,236.028,81.174z M268.008,46.71c-0.21-3.726-1.708-6.907-4.502-9.547
		c-2.795-2.64-6.083-3.958-9.858-3.958c-3.779,0-7.062,1.318-9.857,3.958c-2.794,2.64-4.295,5.821-4.502,9.547H268.008z
		 M266.3,20.164c6.621,2.692,11.899,7.039,15.834,13.041c2.381-6.416,2.274-10.918-0.311-13.506
		C279.029,16.803,273.853,16.957,266.3,20.164z"/>
</g>
<g id="firefox">
	<path fill="none" stroke="#292929" d="M189.742,38.496c0,0.984-0.078,2.898-0.232,5.744c-0.158,2.847-0.494,5.641-1.01,8.383
		c-0.52,2.744-1.475,5.82-2.871,9.236c-1.4,3.415-3.105,6.495-5.125,9.236c-2.016,2.742-4.787,5.332-8.303,7.762
		c-3.521,2.433-7.506,4.167-11.955,5.201c-2.383,0.621-4.814,0.982-7.297,1.086c-0.104,0-0.309,0.051-0.619,0.156
		c-2.073,0.102-4.143,0.102-6.213,0c-12.833-1.034-22.613-7.348-29.34-18.939c-3.104-5.485-4.864-10.711-5.278-15.68
		c-0.311,1.451-0.518,2.692-0.621,3.727c-0.311-5.899,0.155-10.712,1.397-14.438c-0.932,1.553-1.604,3.002-2.018,4.347
		c0.827-4.657,1.914-8.329,3.26-11.022c0.104-0.62,0.725-1.758,1.862-3.414c0-0.207,0-0.362,0-0.467
		c-0.207-2.896,0.078-5.51,0.854-7.839c0.775-2.329,1.423-3.776,1.94-4.347c0.518-0.568,0.931-1.01,1.241-1.319
		c0.104,2.483,1.397,4.865,3.881,7.141c0.621,0.104,1.19,0.155,1.708,0.155c2.587-0.517,5.278-0.466,8.072,0.155
		c1.656-2.069,4.191-3.466,7.606-4.191l2.95-0.155c-3.002,1.761-4.812,4.295-5.434,7.606c1.139,2.382,2.639,3.571,4.502,3.571
		c1.552,0,2.69,0,3.415,0c1.76,0,2.69,0.154,2.794,0.465v0.155v0.155c0.104,0.104,0.104,0.26,0,0.466v0.155v0.155
		c-0.104,1.036-0.465,1.812-1.086,2.329c-0.104,0-0.155,0.025-0.155,0.077c0,0.054-0.052,0.077-0.155,0.077
		c0,0.104-0.466,0.415-1.397,0.932c-1.242,0.83-2.225,1.502-2.949,2.019c-1.346,0.829-2.019,1.397-2.019,1.708v0.154h-0.155
		c0.311,0.621,0.518,1.397,0.621,2.329c0.207,0.931,0.259,1.501,0.155,1.708c0,0.518,0,0.984,0,1.396
		c-1.242-0.621-2.432-1.033-3.57-1.242c-1.449,0.621-2.277,1.295-2.483,2.019c-0.104,0.413-0.207,0.829-0.311,1.241
		c0,1.967,1.396,3.779,4.191,5.434c1.138,0.725,2.303,1.141,3.492,1.242c1.19,0.105,2.122,0.053,2.795-0.155
		c0.672-0.207,1.5-0.518,2.483-0.932c0.983-0.413,1.682-0.673,2.095-0.776c3.109-0.828,5.643-0.102,7.607,2.174
		c0.625,0.621,0.752,1.217,0.391,1.785c-0.363,0.57-0.908,0.752-1.631,0.543c-0.309,0.104-0.518,0.131-0.619,0.078
		c-0.105-0.051-0.34,0-0.701,0.155s-0.619,0.259-0.773,0.31c-0.158,0.054-0.416,0.209-0.777,0.467
		c-0.363,0.26-0.648,0.441-0.855,0.543c-0.207,0.104-0.541,0.336-1.01,0.699c-0.465,0.363-0.854,0.596-1.165,0.697
		c-1.241,0.932-3.026,1.605-5.354,2.019c-2.329,0.414-4.27,0.414-5.821,0c1.241,0.932,2.225,1.605,2.949,2.019
		c0.725,0.415,1.914,1.062,3.57,1.939c1.656,0.882,3.079,1.451,4.27,1.709c1.19,0.26,2.69,0.387,4.505,0.387
		c1.809,0,3.465-0.31,4.967-0.931c1.498-0.621,3.104-1.681,4.812-3.183c1.705-1.499,3.336-3.388,4.891-5.666
		c0.311-0.518,0.514-0.828,0.617-0.932c0.207,0-0.051,1.397-0.775,4.191c-0.311,1.451-0.414,2.174-0.311,2.174
		c1.76-1.242,2.975-3.623,3.648-7.141c0.672-3.518,0.75-6.934,0.232-10.246c1.242,0.519,2.121,1.5,2.639,2.949l0.314,0.311
		c0.617-1.965,0.98-4.526,1.086-7.684c0.102-3.156-0.209-5.77-0.932-7.84c1.344,0.414,2.584,1.76,3.727,4.036
		c-0.311-1.655-0.779-3.183-1.398-4.579c-0.623-1.398-1.318-2.586-2.098-3.571c-0.773-0.982-1.604-1.913-2.484-2.794
		c-0.879-0.879-1.781-1.604-2.713-2.174c-0.936-0.567-1.84-1.086-2.717-1.552c-0.883-0.466-1.711-0.827-2.484-1.087
		c-0.779-0.258-1.477-0.466-2.096-0.621c-0.623-0.155-1.09-0.258-1.396-0.311c-0.311-0.051-0.418-0.077-0.311-0.077
		c2.584-0.724,5.223-1.087,7.916-1.087c-0.311-0.517-0.908-0.982-1.785-1.396c-0.881-0.413-1.84-0.777-2.873-1.088
		c-1.035-0.311-2.045-0.567-3.025-0.775c-0.986-0.207-2.15-0.466-3.492-0.776h-0.156h0.309c2.896-0.827,7.451-0.206,13.66,1.862
		c2.277,0.726,4.35,2.045,6.209,3.959c1.867,1.916,3.031,3.338,3.496,4.27c0.463,0.932,0.799,1.707,1.01,2.328v-0.621
		c0.1-0.517,0.023-1.319-0.232-2.406c-0.262-1.086-0.65-2.25-1.166-3.492c0.102,0,0.258,0.077,0.467,0.232
		c0.203,0.155,0.592,0.725,1.164,1.707c0.566,0.984,1.213,2.406,1.938,4.27c1.139,2.795,2.121,7.814,2.953,15.059l0.932-5.899
		C189.688,36.764,189.742,37.514,189.742,38.496z"/>
</g>
<g id="chrome">
	<path fill="none" stroke="#292929" d="M55.434,69.56L44.101,89.275c-9.624-1.45-17.672-5.872-24.139-13.273
		C13.493,68.604,10.259,59.936,10.259,50c0-6.933,1.708-13.452,5.123-19.56l16.145,28.253c1.655,3.415,4.139,6.21,7.451,8.383
		s6.986,3.26,11.022,3.26C51.862,70.336,53.673,70.079,55.434,69.56z M30.285,44.877L18.952,25.162
		c3.727-4.657,8.279-8.306,13.661-10.944c5.38-2.639,11.177-3.959,17.387-3.959c7.142,0,13.739,1.761,19.793,5.278
		c6.054,3.52,10.839,8.281,14.359,14.282H51.708c-0.52-0.103-1.087-0.155-1.708-0.155c-4.657,0-8.823,1.424-12.497,4.269
		C33.829,36.78,31.423,40.429,30.285,44.877z M39.832,60.168c-2.847-2.845-4.269-6.234-4.269-10.168
		c0-3.933,1.422-7.32,4.269-10.168c2.847-2.846,6.233-4.27,10.168-4.27c3.932,0,7.321,1.424,10.168,4.27
		c2.845,2.848,4.269,6.235,4.269,10.168c0,3.934-1.424,7.323-4.269,10.168c-2.847,2.848-6.236,4.27-10.168,4.27
		C46.065,64.438,42.679,63.016,39.832,60.168z M64.282,35.407h22.664c1.863,4.657,2.795,9.523,2.795,14.593
		c0,10.866-3.83,20.181-11.488,27.942c-7.659,7.763-16.92,11.693-27.787,11.799l16.3-28.099c2.38-3.518,3.571-7.398,3.571-11.643
		C70.337,44.31,68.318,39.444,64.282,35.407z"/>
</g>
</svg>
