<?xml version="1.0" ?>
<svg version="1.1" xmlns="http://www.w3.org/2000/svg" width="300px" height="300px" viewBox="0 0 300 300">
	<linearGradient id="gradient-1" gradientUnits="userSpaceOnUse" x1="123.9995" y1="145" x2="123.9995" y2="165.0005">
		<stop offset="0" style="stop-color:#292929" />
		<stop offset="0.1435" style="stop-color:#191919" />
		<stop offset="0.3493" style="stop-color:#0B0B0B" />
		<stop offset="0.5975" style="stop-color:#030303" />
		<stop offset="1" style="stop-color:#000000" />
	</linearGradient>
	<linearGradient id="gradient-2" gradientUnits="userSpaceOnUse" x1="183" y1="214" x2="183" y2="228">
		<stop offset="0" style="stop-color:#292929" />
		<stop offset="0.1435" style="stop-color:#191919" />
		<stop offset="0.3493" style="stop-color:#0B0B0B" />
		<stop offset="0.5975" style="stop-color:#030303" />
		<stop offset="1" style="stop-color:#000000" />
	</linearGradient>
	<linearGradient id="gradient-3" gradientUnits="userSpaceOnUse" x1="246.5" y1="259" x2="246.5" y2="267">
		<stop offset="0" style="stop-color:#292929" />
		<stop offset="0.1435" style="stop-color:#191919" />
		<stop offset="0.3493" style="stop-color:#0B0B0B" />
		<stop offset="0.5975" style="stop-color:#030303" />
		<stop offset="1" style="stop-color:#000000" />
	</linearGradient>

	<g>
		<rect x="0.566" y="26.309" fill="#FFF" stroke="#292929" width="246.958" height="138.915" />
		<rect x="1" y="145" fill="url(#gradient-1)" width="246" height="20" />
		<polygon fill="#FFF" points="15.716,155.054 6.728,149.703 6.728,160.297" />
		<g>
			<path fill="#FFF" d="M24.312,152.407c0.491,0,0.876,0.178,1.153,0.526c0.331,0.417,0.496,1.105,0.496,2.068
				c0,0.961-0.167,1.651-0.499,2.072c-0.274,0.347-0.659,0.519-1.15,0.519c-0.496,0-0.894-0.188-1.195-0.57
				c-0.302-0.378-0.454-1.055-0.454-2.031c0-0.954,0.167-1.644,0.499-2.063C23.436,152.581,23.819,152.407,24.312,152.407z
				 M24.312,153.216c-0.12,0-0.222,0.036-0.315,0.112c-0.093,0.076-0.164,0.208-0.215,0.404c-0.066,0.251-0.101,0.672-0.101,1.27
				c0,0.596,0.032,1.006,0.091,1.229c0.06,0.221,0.135,0.37,0.228,0.445c0.092,0.071,0.194,0.109,0.313,0.109
				c0.118,0,0.221-0.038,0.314-0.113c0.094-0.075,0.164-0.211,0.214-0.404c0.068-0.249,0.101-0.671,0.101-1.267
				c0-0.598-0.03-1.006-0.089-1.228c-0.06-0.223-0.137-0.37-0.228-0.446C24.533,153.252,24.43,153.216,24.312,153.216z" />
			<path fill="#FFF" d="M28.257,152.407c0.491,0,0.877,0.178,1.154,0.526c0.329,0.417,0.494,1.105,0.494,2.068
				c0,0.961-0.166,1.651-0.499,2.072c-0.274,0.347-0.658,0.519-1.149,0.519c-0.495,0-0.893-0.188-1.195-0.57
				c-0.302-0.378-0.454-1.055-0.454-2.031c0-0.954,0.167-1.644,0.5-2.063C27.382,152.581,27.765,152.407,28.257,152.407z
				 M28.257,153.216c-0.118,0-0.222,0.036-0.315,0.112c-0.092,0.076-0.165,0.208-0.215,0.404c-0.067,0.251-0.1,0.672-0.1,1.27
				c0,0.596,0.03,1.006,0.09,1.229c0.06,0.221,0.136,0.37,0.227,0.445c0.091,0.071,0.196,0.109,0.313,0.109
				c0.117,0,0.223-0.038,0.316-0.113c0.092-0.075,0.163-0.211,0.214-0.404c0.066-0.249,0.1-0.671,0.1-1.267
				c0-0.598-0.029-1.006-0.089-1.228c-0.061-0.223-0.137-0.37-0.228-0.446C28.479,153.252,28.374,153.216,28.257,153.216z" />
			<path fill="#FFF" d="M30.952,154.801v-0.973h0.974v0.973H30.952z M30.952,157.508v-0.974h0.974v0.974H30.952z" />
			<path fill="#FFF" d="M34.564,152.407c0.493,0,0.876,0.178,1.153,0.526c0.332,0.417,0.495,1.105,0.495,2.068
				c0,0.961-0.167,1.651-0.498,2.072c-0.274,0.347-0.658,0.519-1.15,0.519c-0.494,0-0.894-0.188-1.195-0.57
				c-0.301-0.378-0.452-1.055-0.452-2.031c0-0.954,0.166-1.644,0.498-2.063C33.689,152.581,34.073,152.407,34.564,152.407z
				 M34.564,153.216c-0.118,0-0.223,0.036-0.315,0.112c-0.094,0.076-0.163,0.208-0.214,0.404c-0.066,0.251-0.101,0.672-0.101,1.27
				c0,0.596,0.03,1.006,0.089,1.229c0.061,0.221,0.137,0.37,0.228,0.445c0.091,0.071,0.196,0.109,0.313,0.109
				s0.223-0.038,0.315-0.113c0.093-0.075,0.164-0.211,0.214-0.404c0.066-0.249,0.103-0.671,0.103-1.267
				c0-0.598-0.032-1.006-0.092-1.228c-0.059-0.223-0.135-0.37-0.226-0.446C34.788,153.252,34.682,153.216,34.564,153.216z" />
			<path fill="#FFF" d="M38.509,152.407c0.491,0,0.877,0.178,1.154,0.526c0.329,0.417,0.495,1.105,0.495,2.068
				c0,0.961-0.166,1.651-0.499,2.072c-0.273,0.347-0.659,0.519-1.15,0.519c-0.495,0-0.893-0.188-1.194-0.57
				c-0.303-0.378-0.455-1.055-0.455-2.031c0-0.954,0.167-1.644,0.499-2.063C37.635,152.581,38.018,152.407,38.509,152.407z
				 M38.509,153.216c-0.118,0-0.222,0.036-0.313,0.112c-0.093,0.076-0.166,0.208-0.217,0.404c-0.065,0.251-0.099,0.672-0.099,1.27
				c0,0.596,0.03,1.006,0.09,1.229c0.059,0.221,0.136,0.37,0.228,0.445c0.09,0.071,0.194,0.109,0.312,0.109
				s0.223-0.038,0.316-0.113c0.092-0.075,0.163-0.211,0.214-0.404c0.066-0.249,0.1-0.671,0.1-1.267
				c0-0.598-0.028-1.006-0.089-1.228c-0.06-0.223-0.135-0.37-0.228-0.446C38.732,153.252,38.627,153.216,38.509,153.216z" />
		</g>
		<path opacity="0.7" fill="#FFF" d="M178.294,155c0,0.981-0.796,1.773-1.774,1.773H47.056c-0.979,0-1.774-0.792-1.774-1.773
			l0,0c0-0.979,0.794-1.773,1.774-1.773H176.52C177.498,153.227,178.294,154.021,178.294,155L178.294,155z" />
		<path opacity="0.7" fill="#231F20" d="M160.559,155c0,0.981-0.796,1.773-1.774,1.773H47.055c-0.98,0-1.772-0.792-1.772-1.773l0,0
			c0-0.979,0.792-1.773,1.772-1.773h111.729C159.763,153.227,160.559,154.021,160.559,155L160.559,155z" />
		<path fill="none" stroke="#292929" d="M106.517,58.454H94l-26.08,35.003v12.553h24.787v13.565h13.81v-13.565h7.787V93.707h-7.787
			V58.454z M81.047,93.707l11.66-15.655v15.655H81.047z" />
		<polygon fill="none" stroke="#292929" points="151.357,82.282 176.092,57.281 156.139,57.281 134.569,80.165 134.569,57.281 
			118.918,57.281 118.918,119.575 134.569,119.575 134.569,99.577 140.666,93.413 158.188,119.575 177.773,119.575" />
	</g>

	<g>
		<rect x="99.139" y="133.138" fill="#FFF" stroke="#292929" width="168.052" height="95.085" />
		<rect x="99" y="214" fill="url(#gradient-2)" width="168" height="14" />
		<polygon fill="#FFF" points="109.448,221.263 103.332,217.6 103.332,224.852" />
		<g>
			<path fill="#FFF" d="M115.298,219.451c0.334,0,0.596,0.122,0.784,0.359c0.225,0.286,0.338,0.758,0.338,1.416
				s-0.114,1.131-0.34,1.419c-0.187,0.237-0.448,0.354-0.782,0.354c-0.338,0-0.608-0.129-0.813-0.391
				c-0.206-0.258-0.309-0.721-0.309-1.39c0-0.653,0.114-1.125,0.339-1.412C114.702,219.57,114.962,219.451,115.298,219.451z
				 M115.298,220.005c-0.082,0-0.151,0.024-0.215,0.076c-0.063,0.053-0.112,0.143-0.146,0.276
				c-0.045,0.173-0.069,0.461-0.069,0.869s0.021,0.688,0.062,0.842c0.041,0.151,0.092,0.254,0.155,0.305
				c0.062,0.049,0.132,0.075,0.213,0.075c0.08,0,0.15-0.026,0.214-0.077c0.063-0.052,0.111-0.145,0.146-0.277
				c0.046-0.17,0.069-0.459,0.069-0.867s-0.021-0.688-0.061-0.84c-0.041-0.152-0.093-0.253-0.155-0.306
				C115.448,220.029,115.377,220.005,115.298,220.005z" />
			<path fill="#FFF" d="M117.982,219.451c0.334,0,0.597,0.122,0.786,0.359c0.224,0.286,0.336,0.758,0.336,1.416
				s-0.112,1.131-0.339,1.419c-0.187,0.237-0.448,0.354-0.782,0.354c-0.337,0-0.607-0.129-0.813-0.391
				c-0.205-0.258-0.309-0.721-0.309-1.39c0-0.653,0.114-1.125,0.341-1.412C117.386,219.57,117.647,219.451,117.982,219.451z
				 M117.982,220.005c-0.08,0-0.151,0.024-0.214,0.076c-0.062,0.053-0.112,0.143-0.147,0.276c-0.045,0.173-0.068,0.461-0.068,0.869
				s0.021,0.688,0.062,0.842c0.041,0.151,0.093,0.254,0.154,0.305c0.062,0.049,0.133,0.075,0.213,0.075
				c0.08,0,0.151-0.026,0.215-0.077c0.062-0.052,0.11-0.145,0.146-0.277c0.045-0.17,0.068-0.459,0.068-0.867
				s-0.02-0.688-0.061-0.84c-0.042-0.152-0.093-0.253-0.155-0.306C118.133,220.029,118.062,220.005,117.982,220.005z" />
			<path fill="#FFF" d="M119.816,221.09v-0.666h0.662v0.666H119.816z M119.816,222.942v-0.666h0.662v0.666H119.816z" />
			<path fill="#FFF" d="M122.274,219.451c0.335,0,0.596,0.122,0.785,0.359c0.226,0.286,0.336,0.758,0.336,1.416
				s-0.113,1.131-0.338,1.419c-0.187,0.237-0.448,0.354-0.783,0.354c-0.336,0-0.608-0.129-0.813-0.391
				c-0.205-0.258-0.308-0.721-0.308-1.39c0-0.653,0.113-1.125,0.338-1.412C121.678,219.57,121.94,219.451,122.274,219.451z
				 M122.274,220.005c-0.08,0-0.152,0.024-0.215,0.076c-0.063,0.053-0.11,0.143-0.146,0.276c-0.045,0.173-0.068,0.461-0.068,0.869
				s0.021,0.688,0.061,0.842c0.041,0.151,0.093,0.254,0.155,0.305c0.062,0.049,0.133,0.075,0.213,0.075s0.151-0.026,0.214-0.077
				c0.063-0.052,0.112-0.145,0.146-0.277c0.045-0.17,0.07-0.459,0.07-0.867s-0.021-0.688-0.062-0.84
				c-0.04-0.152-0.092-0.253-0.154-0.306C122.426,220.029,122.354,220.005,122.274,220.005z" />
			<path fill="#FFF" d="M124.958,219.451c0.334,0,0.597,0.122,0.786,0.359c0.224,0.286,0.336,0.758,0.336,1.416
				s-0.113,1.131-0.339,1.419c-0.187,0.237-0.449,0.354-0.783,0.354c-0.336,0-0.607-0.129-0.812-0.391
				c-0.206-0.258-0.31-0.721-0.31-1.39c0-0.653,0.114-1.125,0.339-1.412C124.364,219.57,124.625,219.451,124.958,219.451z
				 M124.958,220.005c-0.08,0-0.151,0.024-0.213,0.076c-0.063,0.053-0.113,0.143-0.147,0.276c-0.044,0.173-0.068,0.461-0.068,0.869
				s0.021,0.688,0.062,0.842c0.04,0.151,0.092,0.254,0.155,0.305c0.062,0.049,0.132,0.075,0.212,0.075s0.152-0.026,0.215-0.077
				c0.063-0.052,0.111-0.145,0.146-0.277c0.045-0.17,0.068-0.459,0.068-0.867s-0.02-0.688-0.061-0.84
				c-0.041-0.152-0.092-0.253-0.155-0.306C125.11,220.029,125.039,220.005,124.958,220.005z" />
		</g>
		<path opacity="0.7" fill="#FFF" d="M220.08,221.226c0,0.672-0.541,1.214-1.207,1.214h-88.099
			c-0.667,0-1.207-0.542-1.207-1.214l0,0c0-0.67,0.541-1.214,1.207-1.214h88.099C219.539,220.012,220.08,220.556,220.08,221.226
			L220.08,221.226z" />
		<path opacity="0.7" fill="#231F20" d="M208.011,221.226c0,0.672-0.541,1.214-1.207,1.214h-76.03
			c-0.667,0-1.207-0.542-1.207-1.214l0,0c0-0.67,0.54-1.214,1.207-1.214h76.03C207.47,220.012,208.011,220.556,208.011,221.226
			L208.011,221.226z" />
		<path fill="#FFF" d="M261.204,219.405v3.642h-4.828v-3.642H261.204 M262.411,218.191h-7.24v6.069h7.24V218.191
			L262.411,218.191z" />
		<path fill="none" stroke="#292929" d="M168.901,169.457h-12.887v-15.193h-10.88v42.46h10.88v-17.792h12.887v17.792h10.88v-42.46
			h-10.88V169.457z M220.745,167.642c-0.546-2.474-1.567-4.786-3.054-6.901c-1.871-2.659-4.4-4.549-7.448-5.545
			c-1.82-0.597-3.997-0.896-6.558-0.932h-18.501v42.46h18.482c0.043,0,0.088,0,0.132,0c6.32,0,11.325-2.785,14.359-8.082
			c2.27-3.915,3.37-8.652,3.37-14.111C221.528,172.329,221.268,170.028,220.745,167.642z M209.282,182.2
			c-0.711,1.766-1.636,2.985-2.768,3.781c-1.125,0.797-2.5,1.219-4.26,1.219h-6.384v-23.413h6.384c1.779,0,3.184,0.261,4.229,0.709
			c1.056,0.461,1.754,1.069,2.25,1.913c1.095,1.854,1.729,4.763,1.729,8.68C210.462,177.898,210.052,180.275,209.282,182.2z" />
	</g>

	<g>
		<rect x="193.456" y="207.9" fill="#FFF" stroke="#292929" width="106.068" height="59.323" />
		<rect x="194" y="259" fill="url(#gradient-3)" width="105" height="8" />
		<polygon fill="#FFF" points="199.963,262.881 196.103,260.596 196.103,265.12" />
		<g>
			<path fill="#FFF" d="M203.655,261.751c0.211,0,0.376,0.075,0.495,0.225c0.142,0.178,0.213,0.472,0.213,0.883
				c0,0.41-0.072,0.705-0.215,0.885c-0.117,0.148-0.282,0.222-0.493,0.222c-0.214,0-0.385-0.08-0.514-0.243
				c-0.13-0.162-0.195-0.45-0.195-0.868c0-0.407,0.072-0.701,0.215-0.881C203.279,261.824,203.443,261.751,203.655,261.751z
				 M203.655,262.096c-0.052,0-0.096,0.016-0.136,0.048s-0.07,0.089-0.093,0.173c-0.028,0.107-0.043,0.287-0.043,0.542
				s0.014,0.43,0.039,0.525c0.025,0.094,0.058,0.158,0.098,0.19c0.039,0.03,0.083,0.046,0.135,0.046
				c0.05,0,0.095-0.016,0.135-0.048s0.07-0.091,0.092-0.173c0.029-0.106,0.044-0.286,0.044-0.541s-0.014-0.43-0.038-0.524
				c-0.026-0.095-0.06-0.158-0.098-0.19C203.75,262.111,203.705,262.096,203.655,262.096z" />
			<path fill="#FFF" d="M205.35,261.751c0.211,0,0.376,0.075,0.495,0.225c0.142,0.178,0.213,0.472,0.213,0.883
				c0,0.41-0.071,0.705-0.215,0.885c-0.117,0.148-0.282,0.222-0.493,0.222c-0.213,0-0.384-0.08-0.514-0.243
				c-0.13-0.162-0.195-0.45-0.195-0.868c0-0.407,0.072-0.701,0.215-0.881C204.974,261.824,205.138,261.751,205.35,261.751z
				 M205.35,262.096c-0.051,0-0.096,0.016-0.136,0.048s-0.07,0.089-0.093,0.173c-0.028,0.107-0.043,0.287-0.043,0.542
				s0.014,0.43,0.039,0.525c0.026,0.094,0.059,0.158,0.098,0.19c0.039,0.03,0.084,0.046,0.135,0.046
				c0.05,0,0.096-0.016,0.136-0.048c0.039-0.032,0.069-0.091,0.092-0.173c0.028-0.106,0.043-0.286,0.043-0.541
				s-0.013-0.43-0.038-0.524c-0.026-0.095-0.06-0.158-0.098-0.19C205.445,262.111,205.399,262.096,205.35,262.096z" />
			<path fill="#FFF" d="M206.507,262.772v-0.415h0.418v0.415H206.507z M206.507,263.929v-0.416h0.418v0.416H206.507z" />
			<path fill="#FFF" d="M208.059,261.751c0.212,0,0.376,0.075,0.495,0.225c0.143,0.178,0.213,0.472,0.213,0.883
				c0,0.41-0.072,0.705-0.214,0.885c-0.118,0.148-0.282,0.222-0.494,0.222c-0.213,0-0.384-0.08-0.514-0.243
				c-0.129-0.162-0.194-0.45-0.194-0.868c0-0.407,0.071-0.701,0.214-0.881C207.683,261.824,207.848,261.751,208.059,261.751z
				 M208.059,262.096c-0.051,0-0.096,0.016-0.136,0.048s-0.069,0.089-0.092,0.173c-0.028,0.107-0.043,0.287-0.043,0.542
				s0.013,0.43,0.038,0.525c0.025,0.094,0.059,0.158,0.098,0.19c0.039,0.03,0.084,0.046,0.135,0.046s0.096-0.016,0.136-0.048
				s0.07-0.091,0.092-0.173c0.028-0.106,0.044-0.286,0.044-0.541s-0.014-0.43-0.04-0.524c-0.025-0.095-0.058-0.158-0.097-0.19
				S208.109,262.096,208.059,262.096z" />
			<path fill="#FFF" d="M209.753,261.751c0.211,0,0.376,0.075,0.495,0.225c0.142,0.178,0.213,0.472,0.213,0.883
				c0,0.41-0.071,0.705-0.214,0.885c-0.118,0.148-0.283,0.222-0.494,0.222c-0.213,0-0.384-0.08-0.513-0.243
				c-0.131-0.162-0.196-0.45-0.196-0.868c0-0.407,0.072-0.701,0.215-0.881C209.377,261.824,209.542,261.751,209.753,261.751z
				 M209.753,262.096c-0.051,0-0.096,0.016-0.135,0.048c-0.04,0.032-0.071,0.089-0.094,0.173c-0.027,0.107-0.042,0.287-0.042,0.542
				s0.013,0.43,0.038,0.525c0.025,0.094,0.059,0.158,0.099,0.19c0.038,0.03,0.083,0.046,0.134,0.046
				c0.05,0,0.096-0.016,0.136-0.048s0.069-0.091,0.092-0.173c0.028-0.106,0.043-0.286,0.043-0.541s-0.013-0.43-0.038-0.524
				c-0.026-0.095-0.059-0.158-0.098-0.19S209.803,262.096,209.753,262.096z" />
		</g>
		<path opacity="0.7" fill="#FFF" d="M269.79,262.857c0,0.419-0.342,0.758-0.762,0.758h-55.604
			c-0.421,0-0.762-0.339-0.762-0.758l0,0c0-0.418,0.341-0.757,0.762-0.757h55.604C269.448,262.101,269.79,262.439,269.79,262.857
			L269.79,262.857z" />
		<path opacity="0.7" fill="#231F20" d="M262.173,262.857c0,0.419-0.342,0.758-0.763,0.758h-47.987
			c-0.421,0-0.761-0.339-0.761-0.758l0,0c0-0.418,0.34-0.757,0.761-0.757h47.987C261.831,262.101,262.173,262.439,262.173,262.857
			L262.173,262.857z" />
		<ellipse fill="#FFF" cx="262.172" cy="262.857" rx="1.051" ry="1.045" />
		<path fill="#FFF" d="M262.172,263.994c-0.629,0-1.142-0.511-1.142-1.137c0-0.627,0.513-1.136,1.142-1.136
			c0.631,0,1.144,0.509,1.144,1.136C263.315,263.483,262.803,263.994,262.172,263.994z M262.172,261.904
			c-0.528,0-0.96,0.428-0.96,0.953c0,0.526,0.432,0.955,0.96,0.955c0.529,0,0.961-0.429,0.961-0.955
			C263.133,262.332,262.701,261.904,262.172,261.904z" />
		<g>
			<path fill="#FFF" d="M275.086,261.751c0.212,0,0.377,0.075,0.495,0.225c0.143,0.178,0.213,0.472,0.213,0.883
				c0,0.41-0.07,0.705-0.214,0.885c-0.117,0.148-0.282,0.222-0.494,0.222s-0.383-0.08-0.513-0.243
				c-0.13-0.162-0.195-0.45-0.195-0.868c0-0.407,0.072-0.701,0.214-0.881C274.71,261.824,274.875,261.751,275.086,261.751z
				 M275.086,262.096c-0.05,0-0.095,0.016-0.135,0.048s-0.07,0.089-0.092,0.173c-0.03,0.107-0.044,0.287-0.044,0.542
				s0.014,0.43,0.039,0.525c0.025,0.094,0.058,0.158,0.097,0.19c0.04,0.03,0.085,0.046,0.135,0.046
				c0.051,0,0.097-0.016,0.136-0.048c0.04-0.032,0.07-0.091,0.093-0.173c0.028-0.106,0.043-0.286,0.043-0.541
				s-0.014-0.43-0.039-0.524s-0.059-0.158-0.098-0.19C275.183,262.111,275.137,262.096,275.086,262.096z" />
			<path fill="#FFF" d="M276.78,261.751c0.212,0,0.377,0.075,0.496,0.225c0.142,0.178,0.213,0.472,0.213,0.883
				c0,0.41-0.072,0.705-0.215,0.885c-0.118,0.148-0.282,0.222-0.494,0.222c-0.213,0-0.383-0.08-0.513-0.243
				c-0.13-0.162-0.195-0.45-0.195-0.868c0-0.407,0.071-0.701,0.215-0.881C276.405,261.824,276.57,261.751,276.78,261.751z
				 M276.78,262.096c-0.05,0-0.095,0.016-0.135,0.048s-0.07,0.089-0.092,0.173c-0.029,0.107-0.044,0.287-0.044,0.542
				s0.014,0.43,0.038,0.525c0.026,0.094,0.059,0.158,0.099,0.19c0.039,0.03,0.084,0.046,0.134,0.046
				c0.051,0,0.096-0.016,0.136-0.048s0.07-0.091,0.092-0.173c0.029-0.106,0.044-0.286,0.044-0.541s-0.013-0.43-0.039-0.524
				c-0.025-0.095-0.058-0.158-0.098-0.19C276.876,262.111,276.831,262.096,276.78,262.096z" />
			<path fill="#FFF" d="M277.938,262.772v-0.415h0.418v0.415H277.938z M277.938,263.929v-0.416h0.418v0.416H277.938z" />
			<path fill="#FFF" d="M280.194,263.542v0.387h-1.465c0.017-0.146,0.063-0.284,0.143-0.416c0.08-0.129,0.236-0.304,0.471-0.52
				c0.188-0.175,0.304-0.293,0.347-0.355c0.058-0.086,0.086-0.17,0.086-0.254c0-0.093-0.025-0.163-0.075-0.214
				c-0.05-0.05-0.119-0.074-0.208-0.074c-0.087,0-0.156,0.025-0.207,0.078c-0.052,0.052-0.082,0.139-0.09,0.26l-0.416-0.041
				c0.024-0.229,0.103-0.394,0.233-0.492c0.131-0.1,0.295-0.149,0.49-0.149c0.215,0,0.385,0.058,0.508,0.172
				c0.123,0.116,0.184,0.259,0.184,0.431c0,0.099-0.018,0.191-0.052,0.279c-0.036,0.089-0.092,0.182-0.167,0.277
				c-0.051,0.063-0.143,0.157-0.275,0.277c-0.131,0.12-0.215,0.2-0.25,0.238c-0.035,0.041-0.063,0.079-0.085,0.116H280.194z" />
			<path fill="#FFF" d="M281.547,263.929h-0.418v-1.567c-0.153,0.143-0.333,0.247-0.539,0.315v-0.378
				c0.108-0.035,0.228-0.103,0.355-0.2c0.128-0.1,0.215-0.216,0.264-0.348h0.338V263.929z" />
		</g>
		<path fill="#FFF" d="M286.027,262.498h-0.771v-0.903h-0.65v2.525h0.65v-1.058h0.771v1.058h0.651v-2.525h-0.651V262.498z
			 M289.128,262.391c-0.03-0.146-0.092-0.284-0.181-0.411c-0.112-0.158-0.264-0.271-0.446-0.329
			c-0.109-0.035-0.239-0.053-0.393-0.056h-1.106v2.525h1.105c0.003,0,0.005,0,0.009,0c0.378,0,0.677-0.165,0.858-0.48
			c0.137-0.232,0.201-0.515,0.201-0.839C289.176,262.669,289.16,262.533,289.128,262.391z M288.443,263.257
			c-0.042,0.105-0.098,0.178-0.166,0.225c-0.066,0.048-0.148,0.072-0.254,0.072h-0.383v-1.393h0.383
			c0.106,0,0.19,0.017,0.253,0.042c0.063,0.027,0.104,0.063,0.135,0.114c0.064,0.109,0.103,0.284,0.103,0.517
			C288.514,263.001,288.488,263.143,288.443,263.257z" />
		<path fill="#FFF" d="M295.746,261.722v2.272h-3.047v-2.272H295.746 M296.508,260.965h-4.57v3.786h4.57V260.965
			L296.508,260.965z" />
		<g>
			<path fill="none" stroke="#292929" d="M241.131,233.423c-0.822-0.54-1.663-0.938-2.501-1.187
				c-0.804-0.238-1.446-0.406-1.883-0.493c-1.498-0.38-2.711-0.691-3.64-0.939c-0.896-0.236-1.603-0.475-2.099-0.709
				c-0.54-0.251-0.756-0.473-0.844-0.614c-0.128-0.208-0.193-0.503-0.193-0.878c0-0.413,0.085-0.747,0.251-0.998
				c0.188-0.28,0.42-0.507,0.711-0.695c0.294-0.19,0.627-0.325,0.99-0.4c0.392-0.084,0.785-0.124,1.173-0.124
				c0.612,0,1.183,0.053,1.696,0.158c0.487,0.1,0.923,0.268,1.293,0.502c0.356,0.226,0.635,0.529,0.854,0.926
				c0.22,0.403,0.353,0.931,0.392,1.57l0.03,0.471h6.08v-0.503c0-1.465-0.287-2.737-0.851-3.783
				c-0.561-1.038-1.33-1.904-2.287-2.572c-0.942-0.66-2.033-1.144-3.242-1.437c-2.215-0.539-4.685-0.63-7.085,0.02
				c-1.128,0.306-2.153,0.782-3.049,1.418c-0.906,0.644-1.649,1.46-2.209,2.424c-0.569,0.981-0.857,2.146-0.857,3.461
				c0,1.177,0.229,2.2,0.681,3.042c0.446,0.833,1.04,1.536,1.767,2.093c0.708,0.543,1.519,0.99,2.41,1.331
				c0.866,0.33,1.767,0.613,2.663,0.837c0.866,0.244,1.744,0.473,2.606,0.677c0.824,0.194,1.568,0.425,2.214,0.683
				c0.606,0.242,1.1,0.546,1.465,0.902c0.316,0.307,0.47,0.705,0.47,1.218c0,0.492-0.118,0.877-0.36,1.181
				c-0.264,0.331-0.601,0.595-1,0.785c-0.422,0.2-0.882,0.339-1.367,0.409c-0.509,0.075-0.993,0.112-1.439,0.112
				c-0.647,0-1.283-0.079-1.889-0.235c-0.587-0.152-1.102-0.386-1.529-0.694c-0.415-0.298-0.753-0.698-1.006-1.185
				c-0.253-0.484-0.381-1.097-0.381-1.817v-0.502h-6.102l-0.008,0.493c-0.023,1.558,0.266,2.924,0.863,4.069
				c0.593,1.141,1.405,2.093,2.417,2.828c0.997,0.729,2.161,1.269,3.46,1.609c1.279,0.333,2.616,0.502,3.973,0.502
				c1.677,0,3.179-0.198,4.463-0.593c1.3-0.398,2.408-0.965,3.294-1.686c0.896-0.729,1.582-1.61,2.039-2.618
				c0.452-1.002,0.683-2.101,0.683-3.264c0-1.438-0.316-2.645-0.941-3.586C242.7,234.716,241.969,233.974,241.131,233.423z" />
			<path fill="none" stroke="#292929" d="M267.744,228.831c-0.572-1.538-1.378-2.842-2.397-3.873
				c-1.022-1.033-2.247-1.818-3.644-2.335c-1.383-0.511-2.894-0.77-4.49-0.77h-10.847v24.987h10.847c1.9,0,3.581-0.327,4.994-0.969
				c1.417-0.645,2.618-1.544,3.568-2.67c0.947-1.122,1.663-2.47,2.13-4.007c0.459-1.52,0.693-3.195,0.693-4.983
				C268.599,232.17,268.311,230.357,267.744,228.831z M252.644,227.291h3.26c1.225,0,2.262,0.173,3.081,0.516
				c0.799,0.335,1.447,0.818,1.93,1.439c0.49,0.635,0.85,1.412,1.067,2.313c0.225,0.931,0.338,1.991,0.338,3.156
				c0,1.256-0.158,2.327-0.473,3.187c-0.309,0.846-0.724,1.537-1.23,2.054c-0.503,0.514-1.08,0.884-1.72,1.104
				c-0.659,0.226-1.351,0.343-2.053,0.343h-4.2V227.291z" />
		</g>
	</g>
</svg>