<?xml version="1.0" encoding="utf-8" ?>
<svg version="1.1" xmlns="http://www.w3.org/2000/svg" width="180px" height="57px" viewBox="0 0 180 57">
	<path fill="#FFF" d="M166.646,25.329c-0.527-0.187-1.055-0.43-1.582-0.729c-0.528-0.298-1.013-0.675-1.459-1.13
		c-0.443-0.454-0.809-1.013-1.086-1.671c-0.282-0.661-0.422-1.444-0.422-2.355c0-1.318,0.272-2.486,0.816-3.507
		c0.545-1.02,1.3-1.884,2.275-2.59c0.974-0.706,2.109-1.248,3.413-1.625c1.301-0.376,2.711-0.565,4.229-0.565
		c0.526,0,1.104,0.024,1.73,0.071c0.626,0.046,1.262,0.118,1.903,0.211c0.644,0.093,1.27,0.229,1.879,0.401
		c0.609,0.172,1.165,0.384,1.658,0.635c-0.068,0.817-0.224,1.625-0.469,2.425c-0.25,0.801-0.654,1.609-1.213,2.426
		c-0.693-0.346-1.533-0.629-2.521-0.849c-0.989-0.219-1.93-0.329-2.82-0.329c-0.366,0-0.766,0.031-1.213,0.093
		c-0.443,0.064-0.864,0.173-1.262,0.33c-0.394,0.158-0.724,0.393-0.988,0.708c-0.264,0.313-0.394,0.706-0.394,1.176
		c0,0.942,0.625,1.68,1.876,2.214l1.931,0.8c0.625,0.251,1.234,0.541,1.828,0.871c0.594,0.329,1.122,0.729,1.582,1.201
		c0.464,0.47,0.833,1.021,1.115,1.648c0.28,0.628,0.418,1.365,0.418,2.212c0,1.571-0.326,2.927-0.987,4.074
		c-0.661,1.146-1.55,2.103-2.67,2.871c-1.121,0.771-2.449,1.343-3.981,1.72s-3.157,0.564-4.87,0.564
		c-1.057,0-2.225-0.103-3.511-0.306c-1.287-0.205-2.44-0.511-3.463-0.917c0.098-1.821,0.594-3.517,1.483-5.088
		c1.023,0.44,2.071,0.748,3.141,0.921c1.07,0.171,2.101,0.257,3.09,0.257c0.495,0,1.021-0.047,1.584-0.141
		c0.558-0.095,1.069-0.251,1.532-0.471c0.461-0.219,0.847-0.525,1.16-0.917c0.313-0.393,0.471-0.871,0.471-1.436
		c0-0.628-0.23-1.138-0.692-1.531c-0.463-0.393-1.104-0.744-1.927-1.06L166.646,25.329z"/>
	<path fill="#FFF" d="M146.718,36.63c-3.395,0-5.894-0.847-7.494-2.543c-1.597-1.694-2.397-4.017-2.397-6.968
		c0-1.882,0.299-3.775,0.889-5.674c0.595-1.899,1.484-3.609,2.672-5.132c1.187-1.522,2.679-2.761,4.476-3.719
		c1.796-0.959,3.898-1.437,6.305-1.437c3.428,0,5.943,0.864,7.541,2.59c1.598,1.727,2.4,4.066,2.4,7.015
		c0,1.947-0.289,3.861-0.868,5.745c-0.578,1.883-1.457,3.579-2.645,5.085c-1.187,1.507-2.686,2.725-4.5,3.65
		C151.283,36.167,149.156,36.63,146.718,36.63z M147.361,31.544c1.253,0,2.306-0.375,3.164-1.128c0.856-0.753,1.56-1.688,2.1-2.803
		c0.545-1.114,0.932-2.29,1.164-3.532c0.231-1.238,0.345-2.361,0.345-3.366c0-2.887-1.236-4.333-3.708-4.333
		c-1.253,0-2.292,0.393-3.116,1.178c-0.824,0.784-1.5,1.743-2.029,2.872c-0.528,1.13-0.897,2.323-1.111,3.578
		c-0.214,1.256-0.322,2.372-0.322,3.344C143.849,30.148,145.018,31.544,147.361,31.544z"/>
	<path fill="#FFF" d="M122.17,36.63c-3.396,0-5.894-0.847-7.492-2.543c-1.6-1.694-2.397-4.017-2.397-6.968
		c0-1.882,0.294-3.775,0.889-5.674c0.595-1.899,1.484-3.609,2.672-5.132c1.185-1.522,2.675-2.761,4.476-3.719
		c1.795-0.959,3.895-1.437,6.303-1.437c3.428,0,5.942,0.864,7.541,2.59c1.6,1.727,2.398,4.066,2.398,7.015
		c0,1.947-0.288,3.861-0.865,5.745c-0.576,1.883-1.458,3.579-2.643,5.085c-1.189,1.507-2.689,2.725-4.5,3.65
		C126.736,36.167,124.61,36.63,122.17,36.63z M122.813,31.544c1.251,0,2.306-0.375,3.165-1.128c0.857-0.753,1.557-1.688,2.102-2.803
		c0.545-1.114,0.932-2.29,1.164-3.532c0.228-1.238,0.344-2.361,0.344-3.366c0-2.887-1.236-4.333-3.709-4.333
		c-1.253,0-2.292,0.393-3.114,1.178c-0.827,0.784-1.501,1.743-2.029,2.872c-0.527,1.13-0.898,2.323-1.111,3.578
		c-0.214,1.256-0.324,2.372-0.324,3.344C119.301,30.148,120.472,31.544,122.813,31.544z"/>
	<path fill="#FFF" d="M104.268,10.779c0.362-1.663,0.619-3.114,0.767-4.355c0.149-1.239,0.221-2.284,0.221-3.131
		c0-0.344-0.007-0.636-0.023-0.871c-0.016-0.236-0.042-0.494-0.075-0.776c0.562-0.095,1.206-0.165,1.929-0.212
		c0.725-0.046,1.353-0.07,1.881-0.07c0.955,0,2.008,0.093,3.164,0.283c0.164,0.47,0.247,1.066,0.247,1.789
		c0,0.659-0.067,1.412-0.197,2.261c-0.133,0.847-0.298,1.773-0.496,2.777l-3.807,18.928c-0.099,0.535-0.148,0.972-0.148,1.319
		c0,0.502,0.074,0.896,0.222,1.175c0.147,0.284,0.337,0.505,0.569,0.661c0.23,0.157,0.495,0.259,0.792,0.306
		c0.295,0.048,0.594,0.069,0.89,0.069c0.131,0,0.379-0.021,0.742-0.069c0.362-0.047,0.692-0.119,0.99-0.212
		c0.163,0.534,0.304,1.115,0.42,1.742c0.115,0.628,0.171,1.271,0.171,1.931c0,0.251-0.007,0.486-0.024,0.707
		c-0.018,0.219-0.04,0.454-0.074,0.706c-0.494,0.188-1.136,0.337-1.93,0.447c-0.788,0.11-1.663,0.166-2.619,0.166
		c-2.243,0-4.007-0.526-5.291-1.578c-1.287-1.052-1.929-2.708-1.929-4.969c0-0.438,0.032-0.901,0.101-1.387
		c0.063-0.487,0.146-0.998,0.246-1.531L104.268,10.779z"/>
	<path fill="#FFF" d="M79.513,11.722c0.628-0.094,1.245-0.165,1.854-0.211c0.608-0.048,1.196-0.072,1.756-0.072
		c1.12,0,2.257,0.093,3.412,0.283l-2.769,14.927c-0.131,0.628-0.199,1.224-0.199,1.788c0,0.942,0.215,1.602,0.644,1.979
		c0.429,0.377,1.037,0.565,1.83,0.565c0.459,0,0.979-0.111,1.555-0.33c0.577-0.219,1.164-0.683,1.758-1.39
		c0.595-0.707,1.169-1.695,1.73-2.966c0.559-1.271,1.041-2.975,1.435-5.11l1.828-9.464c1.287-0.189,2.491-0.283,3.612-0.283
		c1.12,0,2.259,0.093,3.413,0.283l-2.673,13.891c-0.361,1.978-0.632,3.728-0.815,5.25c-0.18,1.521-0.271,2.708-0.271,3.555
		c0,0.345,0,0.635,0,0.871c0,0.235,0.018,0.494,0.049,0.777c-1.088,0.189-2.176,0.283-3.262,0.283c-0.925,0-1.948-0.094-3.069-0.283
		c-0.066-0.252-0.13-0.549-0.197-0.895c-0.067-0.344-0.099-0.862-0.099-1.553c0-0.284,0.007-0.566,0.024-0.849
		c0.018-0.282,0.057-0.626,0.123-1.035c-0.394,0.659-0.889,1.287-1.483,1.884c-0.593,0.596-1.269,1.114-2.027,1.553
		c-0.759,0.44-1.573,0.786-2.449,1.035c-0.872,0.252-1.754,0.378-2.643,0.378c-1.979,0-3.523-0.479-4.626-1.436
		c-1.104-0.958-1.656-2.55-1.656-4.779c0-0.473,0.033-0.974,0.099-1.508c0.067-0.532,0.15-1.097,0.249-1.695L79.513,11.722z"/>
	<path fill="#FFF" d="M54.54,10.779c0.594-3.296,0.89-5.791,0.89-7.486c0-0.344-0.007-0.636-0.025-0.871
		c-0.018-0.236-0.042-0.494-0.074-0.776c0.56-0.095,1.203-0.165,1.931-0.212c0.724-0.046,1.349-0.07,1.877-0.07
		c0.956,0,2.011,0.093,3.166,0.283c0.164,0.47,0.248,1.066,0.248,1.789c0,1.38-0.2,3.061-0.594,5.039l-1.238,6.544
		c0.398-0.471,0.833-0.934,1.312-1.389c0.478-0.454,1.03-0.872,1.656-1.247c0.626-0.377,1.353-0.675,2.176-0.896
		c0.825-0.219,1.782-0.329,2.869-0.329c2.307,0,4.08,0.753,5.315,2.261c1.238,1.504,1.856,3.689,1.856,6.544
		c0,1.946-0.299,3.907-0.889,5.886c-0.594,1.977-1.593,3.768-2.994,5.368c-1.401,1.602-3.257,2.903-5.563,3.908
		s-5.161,1.506-8.555,1.506c-1.55,0-2.966-0.125-4.252-0.375c-1.287-0.252-2.506-0.597-3.66-1.037L54.54,10.779z M57.804,30.793
		c0.262,0.093,0.6,0.164,1.014,0.21c0.412,0.048,0.83,0.072,1.26,0.072c1.45,0,2.695-0.322,3.732-0.966
		c1.041-0.643,1.898-1.46,2.573-2.449c0.675-0.99,1.171-2.081,1.484-3.273c0.313-1.191,0.469-2.353,0.469-3.483
		c0-1.1-0.239-2.048-0.717-2.849c-0.479-0.801-1.292-1.2-2.447-1.2c-1.517,0-2.821,0.613-3.907,1.835
		c-1.086,1.226-1.878,3.25-2.374,6.075L57.804,30.793z"/>
	<path fill="#FFF" d="M48.823,25.52c-0.362,1.976-0.625,3.726-0.791,5.249c-0.165,1.522-0.246,2.708-0.246,3.556
		c0,0.345,0,0.635,0,0.872c0,0.235,0.014,0.494,0.049,0.776c-1.09,0.189-2.162,0.284-3.215,0.284c-0.925,0-1.946-0.094-3.067-0.284
		c-0.067-0.25-0.13-0.55-0.197-0.894c-0.067-0.345-0.099-0.863-0.099-1.555c0-0.281,0-0.58,0-0.895c0-0.312,0.032-0.673,0.099-1.083
		c-0.956,1.444-2.176,2.654-3.66,3.626c-1.483,0.974-3.213,1.459-5.192,1.459c-2.177,0-3.808-0.659-4.896-1.976
		c-1.088-1.319-1.633-3.062-1.633-5.228c0-2.355,0.373-4.63,1.114-6.828c0.742-2.197,1.846-4.143,3.312-5.838
		c1.466-1.695,3.291-3.054,5.466-4.072c2.177-1.02,4.714-1.531,7.615-1.531c1.449,0,2.803,0.094,4.056,0.282
		c1.252,0.189,2.488,0.455,3.708,0.8L48.823,25.52z M43.729,16.76c-0.295-0.063-0.585-0.102-0.865-0.117
		c-0.281-0.016-0.552-0.024-0.815-0.024c-1.583,0-2.926,0.377-4.033,1.13c-1.104,0.753-2.018,1.695-2.742,2.826
		c-0.728,1.13-1.256,2.347-1.583,3.649c-0.331,1.303-0.496,2.488-0.496,3.554c0,2.323,0.808,3.484,2.422,3.484
		c1.582,0,3.05-0.917,4.402-2.754c1.353-1.837,2.341-4.417,2.967-7.746L43.729,16.76z"/>
	<path fill="#FFF" d="M40.052,37.326c-3.541,2.409-13.451,8.582-21.101,4.816l5.738-25.653h4.433l0.421-2.283h-4.376
		l1.02-4.507c0.839-3.823,2.876-4.679,4.193-4.679c1.2,0,2.279,0.628,2.279,1.94c0,0.514-0.06,0.97-0.12,1.541h2.815
		c0.12-0.685,0.179-1.426,0.179-2.339c0-3.709-3.415-6.162-7.07-6.162c-3.955,0-9.108,1.541-10.907,9.699l-7.251,32.58
		C4.614,43.934,0,45.589,0,50.838C0,54.546,3.416,57,7.072,57c3.896,0,8.868-1.54,10.726-9.7l0.633-2.688
		c4.444,2.588,11.503,6.054,20.18-1.01L40.052,37.326z M9.107,47.471c-0.776,3.367-2.155,4.451-3.414,4.451
		c-1.32,0-2.398-1.083-2.398-1.883c0-3.082,2.816-4.68,6.593-5.877L9.107,47.471z"/>
</svg>