<?xml version="1.0"?>
<svg version="1.1" xmlns="http://www.w3.org/2000/svg" width="500px" height="69px" viewBox="0 0 500 69">
	<radialGradient id="gradient-1" cx="41.5112" cy="30.9902" r="36.6307" gradientTransform="matrix(1.1247 0 0 1.1133 6.090361e-05 0)" gradientUnits="userSpaceOnUse">
		<stop offset="0" style="stop-color:#26AAE1" />
		<stop offset="1" style="stop-color:#0655A3" />
	</radialGradient>
	<radialGradient id="gradient-2" cx="105.1284" cy="30.9902" r="36.6307" gradientTransform="matrix(1.1247 0 0 1.1133 6.090361e-05 0)" gradientUnits="userSpaceOnUse">
		<stop offset="0" style="stop-color:#AA82BA" />
		<stop offset="1" style="stop-color:#4E2D82" />
	</radialGradient>

	<path d="M498.744,49.808c-0.839-1.488-2.005-2.632-3.503-3.431c-1.499-0.798-3.036-1.199-4.609-1.199
		c-1.571,0-3.111,0.401-4.607,1.199c-1.506,0.799-2.67,1.942-3.511,3.431c-0.844,1.49-1.263,3.042-1.263,4.657
		c0,1.599,0.416,3.136,1.242,4.612c0.829,1.477,1.987,2.621,3.475,3.436c1.484,0.815,3.041,1.226,4.664,1.226s3.18-0.411,4.67-1.226
		c1.488-0.815,2.638-1.958,3.466-3.436c0.822-1.477,1.232-3.013,1.232-4.612C500,52.85,499.581,51.298,498.744,49.808z
		 M493.583,58.861c-0.805,0.612-1.788,0.913-2.939,0.913c-1.462,0-2.643-0.463-3.554-1.399c-0.911-0.935-1.366-2.233-1.366-3.886
		c0-1.083,0.207-2.022,0.616-2.823c0.419-0.801,1.007-1.403,1.773-1.805c0.769-0.408,1.645-0.613,2.632-0.613
		c1.1,0,2.014,0.261,2.74,0.781c0.733,0.519,1.229,1.228,1.501,2.123l-1.487,0.356c-0.245-0.604-0.61-1.071-1.1-1.396
		c-0.481-0.325-1.051-0.486-1.706-0.486c-0.954,0-1.737,0.338-2.355,1.006c-0.616,0.676-0.925,1.638-0.925,2.893
		c0,1.258,0.294,2.205,0.877,2.849c0.584,0.643,1.343,0.968,2.267,0.968c0.748,0,1.396-0.22,1.965-0.643
		c0.562-0.427,0.933-1.006,1.119-1.735l1.53,0.442C494.917,57.433,494.386,58.25,493.583,58.861z" />
	<path fill-rule="evenodd" clip-rule="evenodd" d="M455.53,65.168V44.397l-0.456-0.071c-13.137-2.073-22.314-13.115-22.314-26.852
		V4.361h8.477v13.113c0,10.84,7.966,19.014,18.532,19.014c10.771,0,18.296-7.818,18.296-19.014V4.237h8.593v13.237
		c0,13.667-9.079,24.664-22.078,26.741l-0.454,0.073v20.88H455.53z" />
	<path fill-rule="evenodd" clip-rule="evenodd" d="M422.029,64.274V31.698c0-10.84-7.965-19.014-18.526-19.014
		c-10.774,0-18.3,7.819-18.3,19.014v33.47h-8.592V4.237h8.592v7.117l0.891-0.741c3.541-2.951,7.897-4.907,12.595-5.657
		c0.049-0.008,3.041-0.595,4.869-0.595c1.729,0,4.604,0.475,4.632,0.479c13.143,2.078,22.318,13.122,22.318,26.857v32.577H422.029z"
		/>
	<path fill-rule="evenodd" clip-rule="evenodd" d="M372.874,31.753h-0.003c-1.094-10.829-7.993-20.727-18.862-25.185
		c-15.731-6.449-33.764,0.941-40.278,16.512c-6.52,15.569,0.952,33.419,16.681,39.872c3.804,1.563,7.743,2.311,11.623,2.333v-8.377
		c-0.074,0-0.146,0-0.214,0.003c-2.731-0.028-5.504-0.565-8.183-1.664c-11.212-4.598-16.537-17.318-11.893-28.414
		c4.647-11.1,17.498-16.367,28.71-11.772c7.32,2.998,12.128,9.475,13.289,16.693h-21.707v8.561h30.837c0,0,0.126-7.247,0-8.534
		V31.753z" />
	<path fill-rule="evenodd" clip-rule="evenodd" d="M308.288,31.71h-30.065l-0.063,8.56l20.85,0.002
		c-1.769,6.088-6.211,11.354-12.581,13.964c-11.111,4.552-23.841-0.665-28.442-11.659c-4.602-10.994,0.673-23.593,11.78-28.15
		c2.65-1.087,5.396-1.616,8.104-1.644c0.07,0,0.142,0,0.212,0V4.489c-3.843,0.021-7.747,0.765-11.514,2.308
		c-15.581,6.386-22.978,24.076-16.521,39.497c6.452,15.42,24.315,22.742,39.899,16.357c9.898-4.062,16.474-12.676,18.308-22.379
		h0.033V31.71z" />
	<path fill-rule="evenodd" clip-rule="evenodd" d="M244.263,31.711h-0.003c-1.094-10.827-7.993-20.726-18.862-25.183
		c-15.731-6.449-33.766,0.941-40.28,16.511c-6.518,15.57,0.953,33.421,16.682,39.874c3.804,1.562,7.745,2.31,11.624,2.332v-8.378
		c-0.073,0-0.146,0-0.216,0.003c-2.729-0.027-5.502-0.565-8.182-1.664c-11.212-4.598-16.534-17.318-11.891-28.415
		c4.647-11.099,17.495-16.367,28.709-11.772c7.319,2.999,12.126,9.475,13.29,16.692h-21.708v8.562h30.837c0,0,0.126-7.247,0-8.534
		V31.711z" />
	<path fill="url(#gradient-1)" d="M34.854,69C15.635,69,0,53.524,0,34.499C0,15.476,15.635,0,34.854,0
		c9.9,0,19.374,4.207,25.995,11.542l0.01,0.002l0.095,0.117l-0.073-0.089c0.523,0.684,23.581,31.885,32.498,43.952
		c-0.622,0.056-1.244,0.083-1.863,0.083c-5.691,0-11.045-2.197-15.073-6.184l-0.001,0.022L52.651,17.268l-0.172-0.216
		c-4.71-4.662-10.969-7.23-17.625-7.23c-13.747,0-24.931,11.071-24.931,24.677c0,13.607,11.184,24.678,24.931,24.678
		c7.905,0,15.146-3.595,19.845-9.733l5.983,8.193C54.062,64.875,44.727,69,34.854,69z" />
	<path fill="url(#gradient-2)" d="M130.077,69c-9.899,0-19.374-4.208-25.996-11.542l-0.008-0.002l-0.102-0.124l0.078,0.094
		c-0.524-0.684-22.609-30.567-32.498-43.949c0.622-0.055,1.243-0.082,1.864-0.082c5.692,0,11.044,2.196,15.073,6.183l0-0.019
		l23.792,32.176l0.172,0.212c4.709,4.663,10.969,7.23,17.624,7.23c13.747,0,24.93-11.071,24.93-24.679
		c0-13.606-11.184-24.676-24.93-24.676c-7.905,0-15.146,3.595-19.845,9.734l-5.982-8.194C110.869,4.124,120.204,0,130.077,0
		c19.218,0,34.854,15.476,34.854,34.499C164.931,53.524,149.295,69,130.077,69z" />
</svg>