<?xml version="1.0" encoding="utf-8"?>
<!-- Generator: Adobe Illustrator 16.0.0, SVG Export Plug-In . SVG Version: 6.00 Build 0)  -->
<!DOCTYPE svg PUBLIC "-//W3C//DTD SVG 1.1 Basic//EN" "http://www.w3.org/Graphics/SVG/1.1/DTD/svg11-basic.dtd">
<svg version="1.1" baseProfile="basic" id="Layer_1"
	 xmlns="http://www.w3.org/2000/svg" xmlns:xlink="http://www.w3.org/1999/xlink" x="0px" y="0px" width="554.297px"
	 height="77.281px" viewBox="0 0 554.297 77.281" xml:space="preserve">
<path fill-rule="evenodd" clip-rule="evenodd" fill="#181818" d="M504.998,72.99V49.726l-0.504-0.08
	c-14.564-2.322-24.738-14.689-24.738-30.076V4.885h9.396V19.57c0,12.142,8.832,21.296,20.545,21.296
	c11.941,0,20.281-8.757,20.281-21.296V4.746h9.527V19.57c0,15.309-10.064,27.625-24.477,29.951l-0.504,0.082V72.99H504.998z"/>
<path fill-rule="evenodd" clip-rule="evenodd" fill="#181818" d="M467.859,71.988V35.502c0-12.141-8.83-21.297-20.539-21.297
	c-11.943,0-20.285,8.758-20.285,21.297v37.486h-9.525V4.746h9.525v7.971l0.986-0.83c3.926-3.305,8.756-5.495,13.963-6.336
	c0.055-0.01,3.371-0.666,5.398-0.666c1.916,0,5.104,0.532,5.135,0.537c14.568,2.327,24.74,14.696,24.74,30.08v36.486H467.859z"/>
<path fill-rule="evenodd" clip-rule="evenodd" fill="#181818" d="M413.365,35.562h-0.002c-1.213-12.127-8.861-23.214-20.91-28.206
	c-17.439-7.223-37.432,1.055-44.654,18.493c-7.227,17.439,1.057,37.431,18.494,44.658c4.217,1.75,8.584,2.588,12.885,2.611v-9.383
	c-0.082,0-0.162,0-0.238,0.004c-3.027-0.031-6.1-0.633-9.07-1.863c-12.43-5.15-18.332-19.396-13.184-31.825
	c5.152-12.431,19.396-18.331,31.828-13.185c8.115,3.358,13.443,10.611,14.732,18.695H379.18v9.589h34.186c0,0,0.141-8.117,0-9.558
	V35.562z"/>
<path fill-rule="evenodd" clip-rule="evenodd" fill="#181818" d="M341.768,35.516h-33.331l-0.071,9.587l23.114,0.002
	c-1.96,6.818-6.885,12.717-13.945,15.641c-12.317,5.098-26.431-0.744-31.53-13.059c-5.103-12.312,0.746-26.423,13.059-31.528
	c2.939-1.217,5.982-1.811,8.984-1.842c0.077,0,0.157,0,0.234,0v-9.29c-4.26,0.023-8.586,0.856-12.764,2.585
	c-17.273,7.153-25.473,26.966-18.316,44.237c7.152,17.271,26.956,25.471,44.232,18.32c10.972-4.549,18.262-14.197,20.297-25.064
	h0.037V35.516z"/>
<path fill-rule="evenodd" clip-rule="evenodd" fill="#181818" d="M270.788,35.517h-0.002c-1.213-12.127-8.861-23.214-20.91-28.206
	c-17.44-7.223-37.433,1.055-44.655,18.493c-7.225,17.44,1.057,37.432,18.494,44.659c4.217,1.75,8.585,2.588,12.885,2.611v-9.383
	c-0.08,0-0.161,0-0.238,0.004c-3.025-0.031-6.1-0.633-9.07-1.863c-12.43-5.15-18.33-19.396-13.182-31.826
	c5.152-12.431,19.395-18.331,31.827-13.185c8.115,3.358,13.443,10.611,14.732,18.695h-24.066v9.59h34.186c0,0,0.14-8.118,0-9.559
	V35.517z"/>
<path fill="#181818" d="M38.64,77.281C17.334,77.281,0,59.947,0,38.64C0,17.334,17.334,0,38.64,0
	c10.975,0,21.478,4.712,28.818,12.928l0.011,0.002l0.105,0.131l-0.082-0.1c0.581,0.766,26.142,35.71,36.027,49.226
	c-0.689,0.062-1.379,0.092-2.064,0.092c-6.311,0-12.245-2.461-16.711-6.926l-0.001,0.023L58.368,19.34l-0.19-0.241
	c-5.222-5.222-12.16-8.097-19.538-8.097c-15.24,0-27.638,12.398-27.638,27.638c0,15.24,12.398,27.639,27.638,27.639
	c8.764,0,16.791-4.025,22-10.9l6.633,9.176C59.934,72.662,49.584,77.281,38.64,77.281z"/>
<path fill="#181818" d="M144.203,77.281c-10.974,0-21.478-4.713-28.818-12.928l-0.01-0.002l-0.111-0.139l0.086,0.105
	c-0.581-0.766-25.064-34.236-36.026-49.224c0.688-0.061,1.378-0.092,2.065-0.092c6.31,0,12.244,2.459,16.71,6.926l0.001-0.022
	l26.375,36.038l0.19,0.238c5.222,5.223,12.161,8.098,19.538,8.098c15.24,0,27.639-12.398,27.639-27.639
	c0-15.24-12.398-27.639-27.639-27.639c-8.764,0-16.791,4.026-22,10.902l-6.633-9.177C122.909,4.619,133.258,0,144.203,0
	c21.306,0,38.639,17.334,38.639,38.64C182.842,59.947,165.509,77.281,144.203,77.281z"/>
<g>
	<path fill="#181818" d="M535.545,60.375c0.481-1.095,1.139-2.046,1.969-2.851c0.829-0.805,1.795-1.438,2.9-1.897
		c1.103-0.459,2.275-0.688,3.514-0.688c1.241,0,2.409,0.229,3.504,0.688c1.096,0.459,2.056,1.092,2.877,1.897
		c0.82,0.805,1.473,1.756,1.957,2.851c0.483,1.095,0.724,2.279,0.724,3.552c0,1.305-0.24,2.509-0.724,3.612
		c-0.484,1.104-1.137,2.062-1.957,2.875c-0.821,0.813-1.781,1.446-2.877,1.897c-1.095,0.451-2.263,0.676-3.504,0.676
		c-1.238,0-2.411-0.225-3.514-0.676c-1.105-0.451-2.071-1.083-2.9-1.897c-0.83-0.813-1.487-1.771-1.969-2.875
		c-0.483-1.104-0.726-2.308-0.726-3.612C534.819,62.654,535.062,61.47,535.545,60.375z M537.029,67.008
		c0.38,0.942,0.902,1.76,1.571,2.452c0.669,0.693,1.457,1.237,2.368,1.631c0.91,0.395,1.897,0.592,2.959,0.592
		c1.048,0,2.021-0.197,2.924-0.592c0.903-0.395,1.688-0.938,2.356-1.631c0.668-0.692,1.193-1.51,1.571-2.452
		c0.379-0.943,0.567-1.969,0.567-3.081c0-1.079-0.188-2.085-0.567-3.021c-0.378-0.934-0.903-1.743-1.571-2.429
		c-0.669-0.684-1.453-1.224-2.356-1.618c-0.902-0.396-1.876-0.592-2.924-0.592c-1.062,0-2.049,0.197-2.959,0.592
		c-0.911,0.394-1.699,0.934-2.368,1.618c-0.669,0.686-1.191,1.495-1.571,2.429c-0.377,0.935-0.568,1.942-0.568,3.021
		C536.461,65.039,536.652,66.065,537.029,67.008z M546.29,67.388c-0.612,0.51-1.339,0.766-2.178,0.766
		c-0.621,0-1.18-0.106-1.678-0.319c-0.499-0.212-0.924-0.503-1.276-0.875c-0.352-0.371-0.624-0.812-0.812-1.322
		c-0.188-0.511-0.282-1.064-0.282-1.66c0-0.607,0.091-1.166,0.272-1.677c0.183-0.51,0.444-0.948,0.786-1.312
		c0.339-0.365,0.76-0.65,1.258-0.856c0.497-0.207,1.057-0.311,1.677-0.311c0.875,0,1.628,0.234,2.261,0.702
		c0.632,0.468,1.021,1.158,1.166,2.07h-1.148c-0.098-0.511-0.343-0.933-0.738-1.268c-0.395-0.334-0.902-0.501-1.522-0.501
		c-0.449,0-0.848,0.079-1.193,0.237c-0.347,0.158-0.636,0.38-0.866,0.666c-0.231,0.286-0.408,0.617-0.529,0.994
		c-0.122,0.377-0.182,0.783-0.182,1.221c0,0.426,0.064,0.833,0.191,1.222c0.128,0.389,0.312,0.729,0.555,1.021
		s0.539,0.526,0.885,0.702c0.347,0.176,0.739,0.264,1.177,0.264c0.62,0,1.124-0.173,1.514-0.52c0.389-0.347,0.626-0.793,0.71-1.34
		h1.168C547.308,66.178,546.905,66.877,546.29,67.388z"/>
</g>
</svg>
