<?xml version="1.0"?>
<svg version="1.1" xmlns="http://www.w3.org/2000/svg" width="300px" height="100px" viewBox="0 0 300 100">
<g opacity="0.3">
	<path fill="#CCC" d="M269.513,47.017c-0.832-0.3-1.671-0.681-2.508-1.166c-0.839-0.474-1.611-1.075-2.318-1.813
		c-0.707-0.728-1.285-1.618-1.729-2.678c-0.443-1.054-0.662-2.309-0.662-3.767c0-2.113,0.432-3.983,1.296-5.623
		c0.862-1.628,2.059-3.015,3.602-4.147c1.545-1.13,3.354-1.996,5.417-2.605c2.07-0.602,4.308-0.904,6.713-0.904
		c0.839,0,1.749,0.038,2.742,0.118c0.995,0.069,2.002,0.184,3.026,0.334c1.02,0.151,2.011,0.37,2.982,0.646
		c0.961,0.276,1.844,0.612,2.625,1.016c-0.106,1.307-0.352,2.598-0.744,3.881c-0.396,1.283-1.033,2.585-1.927,3.89
		c-1.091-0.555-2.429-1.005-3.998-1.362c-1.567-0.349-3.065-0.531-4.474-0.531c-0.58,0-1.214,0.057-1.921,0.159
		c-0.706,0.095-1.375,0.278-2.002,0.521c-0.632,0.257-1.149,0.634-1.567,1.132c-0.419,0.509-0.632,1.131-0.632,1.894
		c0,1.501,0.991,2.691,2.979,3.544l3.065,1.28c0.993,0.405,1.963,0.866,2.902,1.397c0.941,0.521,1.778,1.167,2.508,1.92
		c0.73,0.76,1.322,1.638,1.77,2.643c0.443,1.005,0.66,2.184,0.66,3.544c0,2.518-0.513,4.688-1.567,6.522
		c-1.042,1.839-2.455,3.373-4.236,4.608c-1.776,1.227-3.881,2.148-6.311,2.75c-2.435,0.601-5.018,0.9-7.734,0.9
		c-1.678,0-3.532-0.16-5.569-0.486c-2.044-0.325-3.877-0.819-5.495-1.467c0.156-2.92,0.944-5.632,2.359-8.151
		c1.616,0.704,3.28,1.191,4.979,1.466c1.7,0.279,3.331,0.415,4.898,0.415c0.79,0,1.626-0.072,2.513-0.219
		c0.889-0.151,1.699-0.405,2.431-0.761c0.734-0.346,1.352-0.842,1.844-1.466c0.503-0.624,0.752-1.397,0.752-2.296
		c0-1.005-0.368-1.825-1.1-2.461c-0.736-0.624-1.755-1.189-3.063-1.696L269.513,47.017z" />
	<path fill="#CCC" d="M237.889,65.121c-5.387,0-9.352-1.352-11.891-4.065c-2.537-2.723-3.805-6.442-3.805-11.166
		c0-3.024,0.474-6.05,1.413-9.098c0.944-3.038,2.357-5.775,4.238-8.221c1.89-2.437,4.248-4.423,7.1-5.958
		c2.857-1.536,6.189-2.3,10.008-2.3c5.44,0,9.434,1.387,11.969,4.147c2.532,2.771,3.8,6.514,3.8,11.243
		c0,3.121-0.458,6.181-1.366,9.204c-0.922,3.014-2.321,5.729-4.205,8.144c-1.879,2.412-4.261,4.365-7.138,5.85
		C245.134,64.382,241.765,65.121,237.889,65.121z M238.908,56.979c1.987,0,3.661-0.601,5.028-1.812
		c1.354-1.198,2.466-2.701,3.327-4.488c0.868-1.78,1.483-3.673,1.845-5.66c0.37-1.985,0.551-3.776,0.551-5.392
		c0-4.618-1.959-6.939-5.881-6.939c-1.988,0-3.641,0.634-4.944,1.883c-1.306,1.258-2.382,2.794-3.221,4.606
		c-0.837,1.813-1.425,3.72-1.758,5.738c-0.347,2.009-0.515,3.79-0.515,5.347C233.339,54.743,235.193,56.979,238.908,56.979z" />
	<path fill="#CCC" d="M198.941,65.121c-5.389,0-9.354-1.352-11.891-4.065c-2.539-2.723-3.805-6.442-3.805-11.165
		c0-3.024,0.478-6.05,1.413-9.098c0.942-3.038,2.357-5.775,4.238-8.221c1.885-2.437,4.248-4.423,7.099-5.958
		c2.849-1.536,6.189-2.301,10.007-2.301c5.437,0,9.431,1.387,11.973,4.148c2.527,2.771,3.795,6.514,3.795,11.243
		c0,3.121-0.455,6.181-1.368,9.204c-0.917,3.014-2.318,5.729-4.197,8.144c-1.883,2.412-4.264,4.365-7.138,5.85
		C206.182,64.382,202.807,65.121,198.941,65.121z M199.958,56.979c1.988,0,3.664-0.601,5.028-1.812
		c1.354-1.198,2.469-2.7,3.329-4.488c0.862-1.78,1.483-3.672,1.844-5.66c0.369-1.985,0.55-3.776,0.55-5.392
		c0-4.618-1.963-6.939-5.879-6.939c-1.988,0-3.639,0.635-4.944,1.883c-1.307,1.258-2.38,2.794-3.222,4.606
		c-0.837,1.813-1.424,3.72-1.758,5.738c-0.347,2.009-0.515,3.79-0.515,5.347C194.391,54.743,196.247,56.979,199.958,56.979z" />
	<path fill="#CCC" d="M170.537,24.164c0.578-2.666,0.975-4.988,1.216-6.975c0.238-1.985,0.359-3.66,0.359-5.022
		c0-0.552-0.02-1.016-0.049-1.396c-0.027-0.372-0.062-0.786-0.116-1.247c0.894-0.15,1.911-0.255,3.06-0.336
		c1.151-0.079,2.145-0.116,2.981-0.116c1.522,0,3.194,0.152,5.028,0.452c0.253,0.76,0.387,1.708,0.387,2.872
		c0,1.053-0.1,2.265-0.314,3.619c-0.205,1.36-0.468,2.84-0.779,4.455l-6.046,30.321c-0.154,0.854-0.236,1.559-0.236,2.111
		c0,0.808,0.119,1.435,0.355,1.884c0.233,0.459,0.536,0.811,0.902,1.061c0.367,0.253,0.786,0.416,1.252,0.486
		c0.468,0.082,0.948,0.115,1.417,0.115c0.206,0,0.597-0.033,1.175-0.115c0.574-0.07,1.101-0.186,1.567-0.333
		c0.261,0.851,0.489,1.789,0.667,2.793c0.184,1.006,0.275,2.033,0.275,3.096c0,0.394-0.01,0.774-0.033,1.128
		c-0.028,0.347-0.07,0.729-0.123,1.135c-0.786,0.3-1.803,0.531-3.063,0.715c-1.255,0.173-2.633,0.254-4.154,0.254
		c-3.555,0-6.355-0.831-8.395-2.518c-2.046-1.686-3.063-4.341-3.063-7.97c0-0.699,0.049-1.442,0.158-2.217
		c0.107-0.782,0.238-1.601,0.394-2.457L170.537,24.164z" />
	<path fill="#CCC" d="M131.158,24.765c0.996-0.15,1.977-0.264,2.948-0.334c0.967-0.081,1.899-0.117,2.786-0.117
		c1.775,0,3.58,0.152,5.415,0.451l-4.302,24.365c-0.216,1.014-0.316,1.963-0.316,2.872c0,1.505,0.342,2.567,1.022,3.164
		c0.68,0.602,1.639,0.904,2.899,0.904c0.727,0,1.554-0.176,2.477-0.521c0.909-0.359,1.843-1.098,2.778-2.229
		c0.945-1.132,1.856-2.715,2.753-4.757c0.886-2.032,1.643-4.759,2.274-8.178l2.815-15.622c2.035-0.299,3.951-0.451,5.726-0.451
		c1.781,0,3.579,0.152,5.411,0.451l-4.146,22.712c-0.574,3.167-1.005,5.972-1.292,8.406c-0.287,2.439-0.431,4.341-0.431,5.694
		c0,0.555,0.012,1.475,0.012,1.846c0,0.382,0.025,0.797,0.083,1.248c-1.735,0.296-3.459,0.451-5.181,0.451
		c-1.465,0-3.092-0.154-4.865-0.451c-0.107-0.405-0.214-0.878-0.32-1.431c-0.099-0.555-0.168-1.836-0.168-2.946
		c0-0.451,0.012-0.899,0.039-1.35c0.031-0.453,0.091-1.006,0.2-1.663c-0.635,1.053-1.413,2.068-2.36,3.012
		c-0.935,0.958-2.01,1.791-3.217,2.496c-1.202,0.705-2.494,1.256-3.881,1.662c-1.389,0.403-2.79,0.603-4.202,0.603
		c-3.137,0-5.582-0.765-7.329-2.299c-1.758-1.536-2.633-4.089-2.633-7.655c0-0.764,0.049-1.562,0.156-2.424
		c0.108-0.852,0.239-1.757,0.395-2.713L131.158,24.765z" />
	<path fill="#CCC" d="M91.625,23.713c0.944-5.287,1.41-9.282,1.41-11.996c0-0.552-0.012-1.017-0.034-1.396
		c-0.027-0.381-0.072-0.795-0.121-1.248c0.886-0.15,1.915-0.263,3.064-0.335c1.15-0.079,2.145-0.116,2.98-0.116
		c1.511,0,3.186,0.152,5.018,0.451c0.262,0.761,0.395,1.709,0.395,2.863c0,2.219-0.313,4.908-0.944,8.083l-1.962,10.484
		c0.633-0.762,1.327-1.5,2.082-2.229c0.76-0.727,1.64-1.396,2.632-1.998c0.995-0.601,2.145-1.084,3.45-1.432
		c1.306-0.356,2.825-0.532,4.55-0.532c3.663,0,6.476,1.203,8.44,3.628c1.962,2.411,2.943,5.901,2.943,10.485
		c0,3.116-0.475,6.257-1.41,9.422c-0.948,3.172-2.528,6.038-4.755,8.602c-2.226,2.563-5.163,4.653-8.825,6.257
		c-3.662,1.618-8.189,2.414-13.575,2.414c-2.463,0-4.706-0.195-6.752-0.603c-2.035-0.403-3.973-0.955-5.806-1.659L91.625,23.713z
		 M96.808,55.768c0.418,0.15,0.948,0.265,1.605,0.347c0.658,0.066,1.317,0.114,1.999,0.114c2.307,0,4.275-0.518,5.925-1.547
		c1.653-1.038,3.006-2.342,4.083-3.925c1.066-1.583,1.857-3.335,2.358-5.243c0.492-1.916,0.742-3.773,0.742-5.586
		c0-1.757-0.382-3.281-1.136-4.562c-0.766-1.284-2.06-1.927-3.888-1.927c-2.408,0-4.471,0.98-6.193,2.942
		c-1.735,1.962-2.987,5.206-3.771,9.733L96.808,55.768z" />
	<path fill="#CCC" d="M82.555,47.328c-0.574,3.163-0.994,5.968-1.258,8.406c-0.261,2.435-0.393,4.342-0.393,5.695
		c0,0.552-0.097,2.792-0.046,3.242c-1.725,0.3-3.425,0.451-5.101,0.451c-1.462,0-3.091-0.15-4.862-0.451
		c-0.107-0.402-0.291-7.031-0.192-7.692c-1.512,2.312-3.449,4.253-5.806,5.81c-2.348,1.558-5.101,2.333-8.239,2.333
		c-3.448,0-6.034-1.051-7.769-3.164c-1.723-2.115-2.586-4.905-2.586-8.372c0-3.774,0.587-7.421,1.77-10.936
		c1.174-3.52,2.924-6.637,5.256-9.362c2.324-2.714,5.221-4.884,8.67-6.525c3.448-1.627,7.481-2.449,12.081-2.449
		c2.307,0,4.45,0.152,6.439,0.452c1.985,0.3,3.949,0.729,5.88,1.281L82.555,47.328z M74.473,33.287
		c-0.469-0.093-0.932-0.16-1.375-0.185c-0.443-0.024-0.875-0.036-1.294-0.036c-2.514,0-4.645,0.6-6.395,1.813
		c-1.748,1.201-3.207,2.713-4.356,4.525c-1.15,1.805-1.99,3.756-2.504,5.846c-0.526,2.088-0.789,3.984-0.789,5.693
		c0,3.727,1.279,5.585,3.842,5.585c2.514,0,4.837-1.476,6.98-4.419c2.154-2.936,3.722-7.078,4.714-12.405L74.473,33.287z" />
	<path fill="#CCC" d="M68,66.133c-5.958,4.18-22.278,13.213-35.319,6.902l8.527-39.892l7.951-0.077l1.517-8.753
		L42.816,24.4l1.524-7.046c1.355-6.567,4.792-8.064,7.028-8.086c2.031-0.031,3.874,1.027,3.896,3.277
		c0.009,0.878-0.079,1.654-0.173,2.633l4.778-0.048c0.189-1.172,0.278-2.444,0.262-4.005C60.057,4.773,54.22,0.637,48.02,0.701
		c-6.703,0.077-15.418,2.806-18.311,16.813L18.018,73.431C8.396,76.372,0.601,79.295,0.701,88.277
		c0.075,6.351,5.913,10.489,12.114,10.422c6.6-0.076,15.012-2.8,18.006-16.807l1.021-4.618c7.593,4.353,19.626,10.157,34.21-2.098
		L68,66.133z M16.09,82.343c-1.257,5.779-3.581,7.662-5.716,7.695c-2.229,0.023-4.076-1.819-4.099-3.187
		c-0.053-5.277,4.697-8.068,11.074-10.19L16.09,82.343z" />
</g>
<g>
	<path fill="#FFF" d="M268.812,46.316c-0.832-0.3-1.671-0.681-2.508-1.166c-0.839-0.474-1.611-1.075-2.318-1.813
		c-0.707-0.728-1.285-1.618-1.729-2.678c-0.443-1.054-0.662-2.309-0.662-3.767c0-2.113,0.432-3.983,1.296-5.623
		c0.862-1.628,2.059-3.015,3.602-4.147c1.545-1.13,3.354-1.996,5.417-2.605c2.07-0.602,4.308-0.904,6.713-0.904
		c0.839,0,1.749,0.038,2.742,0.118c0.995,0.069,2.002,0.184,3.026,0.334c1.02,0.151,2.011,0.37,2.982,0.646
		c0.961,0.276,1.844,0.612,2.625,1.016c-0.106,1.307-0.352,2.598-0.744,3.881c-0.396,1.283-1.033,2.585-1.927,3.89
		c-1.091-0.555-2.429-1.005-3.998-1.362c-1.567-0.349-3.065-0.531-4.474-0.531c-0.58,0-1.214,0.057-1.921,0.159
		c-0.706,0.095-1.375,0.278-2.002,0.521c-0.632,0.257-1.149,0.634-1.567,1.132c-0.419,0.509-0.632,1.131-0.632,1.894
		c0,1.501,0.991,2.691,2.979,3.544l3.065,1.28c0.993,0.405,1.963,0.866,2.902,1.397c0.941,0.521,1.778,1.167,2.508,1.92
		c0.73,0.76,1.322,1.638,1.77,2.643c0.443,1.005,0.66,2.184,0.66,3.544c0,2.518-0.513,4.688-1.567,6.522
		c-1.042,1.839-2.455,3.373-4.236,4.608c-1.776,1.227-3.881,2.148-6.311,2.75c-2.435,0.601-5.018,0.9-7.734,0.9
		c-1.678,0-3.532-0.16-5.569-0.486c-2.044-0.325-3.877-0.819-5.495-1.467c0.156-2.92,0.944-5.632,2.359-8.151
		c1.616,0.704,3.28,1.191,4.979,1.466c1.7,0.279,3.331,0.415,4.898,0.415c0.79,0,1.626-0.072,2.513-0.219
		c0.889-0.151,1.699-0.405,2.431-0.761c0.734-0.346,1.352-0.842,1.844-1.466c0.503-0.624,0.752-1.397,0.752-2.296
		c0-1.005-0.368-1.825-1.1-2.461c-0.736-0.624-1.755-1.189-3.063-1.696L268.812,46.316z" />
	<path fill="#FFF" d="M237.189,64.421c-5.387,0-9.352-1.352-11.891-4.065c-2.537-2.723-3.805-6.442-3.805-11.166
		c0-3.024,0.474-6.05,1.413-9.098c0.944-3.038,2.357-5.775,4.238-8.221c1.89-2.437,4.248-4.423,7.1-5.958
		c2.857-1.536,6.189-2.3,10.008-2.3c5.44,0,9.434,1.387,11.969,4.147c2.532,2.771,3.8,6.514,3.8,11.243
		c0,3.121-0.458,6.181-1.366,9.204c-0.922,3.014-2.321,5.729-4.205,8.144c-1.879,2.412-4.261,4.365-7.138,5.85
		C244.434,63.682,241.064,64.421,237.189,64.421z M238.208,56.278c1.987,0,3.661-0.601,5.028-1.812
		c1.354-1.198,2.466-2.701,3.327-4.488c0.868-1.78,1.483-3.673,1.845-5.66c0.37-1.985,0.551-3.776,0.551-5.392
		c0-4.618-1.959-6.939-5.881-6.939c-1.988,0-3.641,0.634-4.944,1.883c-1.306,1.258-2.382,2.794-3.221,4.606
		c-0.837,1.813-1.425,3.72-1.758,5.738c-0.347,2.009-0.515,3.79-0.515,5.347C232.639,54.043,234.493,56.278,238.208,56.278z" />
	<path fill="#FFF" d="M198.241,64.421c-5.389,0-9.354-1.352-11.891-4.065c-2.539-2.723-3.805-6.442-3.805-11.165
		c0-3.024,0.478-6.05,1.413-9.098c0.942-3.038,2.357-5.775,4.238-8.221c1.885-2.437,4.248-4.423,7.099-5.958
		c2.849-1.536,6.189-2.301,10.007-2.301c5.437,0,9.431,1.387,11.973,4.148c2.527,2.771,3.795,6.514,3.795,11.243
		c0,3.121-0.455,6.181-1.368,9.204c-0.917,3.014-2.318,5.729-4.197,8.144c-1.883,2.412-4.264,4.365-7.138,5.85
		C205.482,63.682,202.106,64.421,198.241,64.421z M199.258,56.278c1.988,0,3.664-0.601,5.028-1.812
		c1.354-1.198,2.469-2.7,3.329-4.488c0.862-1.78,1.483-3.672,1.844-5.66c0.369-1.985,0.55-3.776,0.55-5.392
		c0-4.618-1.963-6.939-5.879-6.939c-1.988,0-3.639,0.635-4.944,1.883c-1.307,1.258-2.38,2.794-3.222,4.606
		c-0.837,1.813-1.424,3.72-1.758,5.738c-0.347,2.009-0.515,3.79-0.515,5.347C193.691,54.043,195.546,56.278,199.258,56.278z" />
	<path fill="#FFF" d="M169.837,23.464c0.578-2.666,0.975-4.988,1.216-6.975c0.238-1.985,0.359-3.66,0.359-5.022
		c0-0.552-0.02-1.016-0.049-1.396c-0.027-0.372-0.062-0.786-0.116-1.247c0.894-0.15,1.911-0.255,3.06-0.336
		c1.151-0.079,2.145-0.116,2.981-0.116c1.522,0,3.194,0.152,5.028,0.452c0.253,0.76,0.387,1.708,0.387,2.872
		c0,1.053-0.1,2.265-0.314,3.619c-0.205,1.36-0.468,2.84-0.779,4.455l-6.046,30.321c-0.154,0.854-0.236,1.559-0.236,2.111
		c0,0.808,0.119,1.435,0.355,1.884c0.233,0.459,0.536,0.811,0.902,1.061c0.367,0.253,0.786,0.416,1.252,0.486
		c0.468,0.082,0.948,0.115,1.417,0.115c0.206,0,0.597-0.033,1.175-0.115c0.574-0.07,1.101-0.186,1.567-0.333
		c0.261,0.851,0.489,1.789,0.667,2.793c0.184,1.006,0.275,2.033,0.275,3.096c0,0.394-0.01,0.774-0.033,1.128
		c-0.028,0.347-0.07,0.729-0.123,1.135c-0.786,0.3-1.803,0.531-3.063,0.715c-1.255,0.173-2.633,0.254-4.154,0.254
		c-3.555,0-6.355-0.831-8.395-2.518c-2.046-1.686-3.063-4.341-3.063-7.97c0-0.699,0.049-1.442,0.158-2.217
		c0.107-0.782,0.238-1.601,0.394-2.457L169.837,23.464z" />
	<path fill="#FFF" d="M130.458,24.064c0.996-0.15,1.977-0.264,2.948-0.334c0.967-0.081,1.899-0.117,2.786-0.117
		c1.775,0,3.58,0.152,5.415,0.451l-4.302,24.365c-0.216,1.014-0.316,1.963-0.316,2.872c0,1.505,0.342,2.567,1.022,3.164
		c0.68,0.602,1.639,0.904,2.899,0.904c0.727,0,1.554-0.176,2.477-0.521c0.909-0.359,1.843-1.098,2.778-2.229
		c0.945-1.132,1.856-2.715,2.753-4.757c0.886-2.032,1.643-4.759,2.274-8.178l2.815-15.622c2.035-0.299,3.951-0.451,5.726-0.451
		c1.781,0,3.579,0.152,5.411,0.451l-4.146,22.712c-0.574,3.167-1.005,5.972-1.292,8.406c-0.287,2.439-0.431,4.341-0.431,5.694
		c0,0.555,0.012,1.475,0.012,1.846c0,0.382,0.025,0.797,0.083,1.248c-1.735,0.296-3.459,0.451-5.181,0.451
		c-1.465,0-3.092-0.154-4.865-0.451c-0.107-0.405-0.214-0.878-0.32-1.431c-0.099-0.555-0.168-1.836-0.168-2.946
		c0-0.451,0.012-0.899,0.039-1.35c0.031-0.453,0.091-1.006,0.2-1.663c-0.635,1.053-1.413,2.068-2.36,3.012
		c-0.935,0.958-2.01,1.791-3.217,2.496c-1.202,0.705-2.494,1.256-3.881,1.662c-1.389,0.403-2.79,0.603-4.202,0.603
		c-3.137,0-5.582-0.765-7.329-2.299c-1.758-1.536-2.633-4.089-2.633-7.655c0-0.764,0.049-1.562,0.156-2.424
		c0.108-0.852,0.239-1.757,0.395-2.713L130.458,24.064z" />
	<path fill="#FFF" d="M90.925,23.013c0.944-5.287,1.41-9.282,1.41-11.996c0-0.552-0.012-1.017-0.034-1.396
		c-0.027-0.381-0.072-0.795-0.121-1.248c0.886-0.15,1.915-0.263,3.064-0.335c1.15-0.079,2.145-0.116,2.98-0.116
		c1.511,0,3.186,0.152,5.018,0.451c0.262,0.761,0.395,1.709,0.395,2.863c0,2.219-0.313,4.908-0.944,8.083l-1.962,10.484
		c0.633-0.762,1.327-1.5,2.082-2.229c0.76-0.727,1.64-1.396,2.632-1.998c0.995-0.601,2.145-1.084,3.45-1.432
		c1.306-0.356,2.825-0.532,4.55-0.532c3.663,0,6.476,1.203,8.44,3.628c1.962,2.411,2.943,5.901,2.943,10.485
		c0,3.116-0.475,6.257-1.41,9.422c-0.948,3.172-2.528,6.038-4.755,8.602c-2.226,2.563-5.163,4.653-8.825,6.257
		c-3.662,1.618-8.189,2.414-13.575,2.414c-2.463,0-4.706-0.195-6.752-0.603c-2.035-0.403-3.973-0.955-5.806-1.659L90.925,23.013z
		 M96.108,55.068c0.418,0.15,0.948,0.265,1.605,0.347c0.658,0.066,1.317,0.114,1.999,0.114c2.307,0,4.275-0.518,5.925-1.547
		c1.653-1.038,3.006-2.342,4.083-3.925c1.066-1.583,1.857-3.335,2.358-5.243c0.492-1.916,0.742-3.773,0.742-5.586
		c0-1.757-0.382-3.281-1.136-4.562c-0.766-1.284-2.06-1.927-3.888-1.927c-2.408,0-4.471,0.98-6.193,2.942
		c-1.735,1.962-2.987,5.206-3.771,9.733L96.108,55.068z" />
	<path fill="#FFF" d="M81.855,46.627c-0.574,3.163-0.994,5.968-1.258,8.406c-0.261,2.435-0.393,4.342-0.393,5.695
		c0,0.552-0.097,2.792-0.046,3.242c-1.725,0.3-3.425,0.451-5.101,0.451c-1.462,0-3.091-0.15-4.862-0.451
		c-0.107-0.402-0.291-7.031-0.192-7.692c-1.512,2.312-3.449,4.253-5.806,5.81c-2.348,1.558-5.101,2.333-8.239,2.333
		c-3.448,0-6.034-1.051-7.769-3.164c-1.723-2.115-2.586-4.905-2.586-8.372c0-3.774,0.587-7.421,1.77-10.936
		c1.174-3.52,2.924-6.637,5.256-9.362c2.324-2.714,5.221-4.884,8.67-6.525c3.448-1.627,7.481-2.449,12.081-2.449
		c2.307,0,4.45,0.152,6.439,0.452c1.985,0.3,3.949,0.729,5.88,1.281L81.855,46.627z M73.772,32.587
		c-0.469-0.093-0.932-0.16-1.375-0.185c-0.443-0.024-0.875-0.036-1.294-0.036c-2.514,0-4.645,0.6-6.395,1.813
		c-1.748,1.201-3.207,2.713-4.356,4.525c-1.15,1.805-1.99,3.756-2.504,5.846c-0.526,2.088-0.789,3.984-0.789,5.693
		c0,3.727,1.279,5.585,3.842,5.585c2.514,0,4.837-1.476,6.98-4.419c2.154-2.936,3.722-7.078,4.714-12.405L73.772,32.587z" />
	<path fill="#FFF" d="M67.3,65.433c-5.958,4.18-22.278,13.213-35.319,6.902l8.527-39.892l7.951-0.077l1.517-8.753
		L42.116,23.7l1.524-7.046c1.355-6.567,4.792-8.064,7.028-8.086c2.031-0.031,3.874,1.027,3.896,3.277
		c0.009,0.878-0.079,1.654-0.173,2.633l4.778-0.048c0.189-1.172,0.278-2.444,0.262-4.005C59.357,4.073,53.52-0.063,47.32,0
		c-6.703,0.077-15.418,2.806-18.311,16.813L17.318,72.73C7.695,75.672-0.1,78.595,0.001,87.577
		c0.075,6.351,5.913,10.489,12.114,10.422c6.6-0.076,15.012-2.8,18.006-16.807l1.021-4.618
		c7.593,4.353,19.626,10.157,34.21-2.098L67.3,65.433z M15.39,81.643c-1.257,5.779-3.581,7.662-5.716,7.695
		c-2.229,0.023-4.076-1.819-4.099-3.187c-0.053-5.277,4.697-8.068,11.074-10.19L15.39,81.643z" />
</g>
<path opacity="0.5" fill="#CCC" d="M292.112,58.528h-2.071v5.893h-0.804v-5.893h-2.073v-0.619h4.948V58.528z
	 M300,64.421h-0.807v-5.828h-0.029l-2.242,5.828h-0.526l-2.243-5.828h-0.029v5.828h-0.804v-6.512h1.482l1.857,4.811h0.03
	l1.826-4.811H300V64.421z" />
</svg>