<?xml version="1.0" encoding="utf-8"?>
<!-- Generator: Adobe Illustrator 16.0.0, SVG Export Plug-In . SVG Version: 6.00 Build 0)  -->
<!DOCTYPE svg PUBLIC "-//W3C//DTD SVG 1.1 Basic//EN" "http://www.w3.org/Graphics/SVG/1.1/DTD/svg11-basic.dtd">
<svg version="1.1" baseProfile="basic" id="Layer_1"
	 xmlns="http://www.w3.org/2000/svg" xmlns:xlink="http://www.w3.org/1999/xlink" x="0px" y="0px" width="380px" height="160px"
	 viewBox="0 0 380 160" xml:space="preserve">
<path d="M260.973,103.754c-8.341,5.865-31.191,18.52-49.447,9.68l11.938-55.896l11.133-0.115l2.119-12.261l-10.996,0.113
	l2.131-9.871c1.891-9.194,6.707-11.299,9.833-11.332c2.847-0.032,5.427,1.443,5.462,4.594c0.014,1.234-0.119,2.327-0.246,3.698
	l6.686-0.072c0.269-1.647,0.388-3.428,0.364-5.616c-0.098-8.899-8.271-14.697-16.947-14.602
	c-9.389,0.103-21.581,3.929-25.638,23.556l-16.359,78.356c-13.469,4.119-24.381,8.211-24.244,20.803
	c0.1,8.896,8.273,14.697,16.951,14.599c9.249-0.1,21.015-3.92,25.208-23.548l1.432-6.465c10.625,6.095,27.469,14.231,47.885-2.95
	L260.973,103.754z M188.299,126.475c-1.758,8.096-5.004,10.739-7.992,10.772c-3.132,0.035-5.717-2.547-5.739-4.458
	c-0.079-7.397,6.564-11.306,15.492-14.277L188.299,126.475z"/>
<path d="M281.345,77.402c-0.806,4.439-1.392,8.367-1.76,11.786c-0.364,3.415-0.549,6.08-0.549,7.982c0,0.772-0.144,3.91-0.067,4.543
	c-2.417,0.424-4.798,0.632-7.14,0.632c-2.052,0-4.326-0.208-6.812-0.632c-0.147-0.562-0.408-9.863-0.261-10.783
	c-2.125,3.244-4.831,5.96-8.127,8.143c-3.295,2.184-7.14,3.272-11.535,3.272c-4.832,0-8.457-1.478-10.874-4.438
	c-2.414-2.962-3.624-6.866-3.624-11.734c0-5.284,0.824-10.391,2.47-15.326c1.647-4.931,4.104-9.299,7.361-13.107
	c3.259-3.806,7.305-6.852,12.138-9.145c4.833-2.286,10.472-3.434,16.917-3.434c3.22,0,6.221,0.213,9.007,0.635
	c2.78,0.422,5.527,1.023,8.238,1.796L281.345,77.402z M270.027,57.739c-0.659-0.139-1.297-0.227-1.92-0.263
	c-0.62-0.036-1.226-0.054-1.811-0.054c-3.518,0-6.5,0.844-8.955,2.538c-2.451,1.69-4.482,3.804-6.095,6.341
	c-1.612,2.539-2.786,5.271-3.515,8.195c-0.731,2.922-1.098,5.584-1.098,7.981c0,5.211,1.79,7.816,5.381,7.816
	c3.515,0,6.772-2.059,9.775-6.18c3.004-4.124,5.2-9.918,6.59-17.392L270.027,57.739z"/>
<path d="M294.042,44.315c1.317-7.399,1.974-13,1.974-16.806c0-0.773-0.018-1.428-0.051-1.956c-0.04-0.53-0.095-1.11-0.167-1.745
	c1.243-0.211,2.675-0.368,4.284-0.476c1.611-0.104,3.004-0.16,4.173-0.16c2.124,0,4.467,0.214,7.03,0.636
	c0.363,1.057,0.551,2.396,0.551,4.015c0,3.104-0.443,6.872-1.318,11.313l-2.745,14.692c0.879-1.059,1.85-2.094,2.91-3.119
	c1.061-1.021,2.289-1.954,3.678-2.8c1.394-0.847,3.004-1.517,4.835-2.009c1.831-0.494,3.954-0.741,6.371-0.741
	c5.125,0,9.062,1.692,11.81,5.077c2.744,3.378,4.117,8.279,4.117,14.693c0,4.369-0.656,8.771-1.974,13.21
	c-1.322,4.437-3.537,8.457-6.65,12.051c-3.112,3.594-7.233,6.517-12.357,8.771c-5.123,2.258-11.462,3.382-19.002,3.382
	c-3.444,0-6.59-0.278-9.447-0.847c-2.854-0.562-5.562-1.334-8.128-2.32L294.042,44.315z M301.291,89.24
	c0.585,0.211,1.333,0.369,2.253,0.477c0.915,0.101,1.847,0.159,2.799,0.159c3.222,0,5.989-0.722,8.293-2.169
	c2.309-1.444,4.212-3.274,5.713-5.495c1.498-2.222,2.601-4.669,3.295-7.348c0.696-2.677,1.042-5.284,1.042-7.821
	c0-2.468-0.53-4.6-1.59-6.396c-1.064-1.798-2.878-2.694-5.436-2.694c-3.371,0-6.268,1.372-8.68,4.12
	c-2.418,2.749-4.175,7.293-5.273,13.636L301.291,89.24z"/>
<path fill-rule="evenodd" clip-rule="evenodd" fill="#EC2024" d="M135.7,120.314c-19.302-9.619-45.544-31.105-45.841-52.985
	c-0.33-24.257,15.926-30.214,26.791-30.214c11.162,0,16.225,6.548,20.827,11.312c4.605-4.763,9.665-11.312,20.828-11.312
	c10.867,0,27.121,5.957,26.791,30.214c-0.297,21.879-26.539,43.366-45.843,52.985c-0.683,0.341-1.229,0.509-1.776,0.509
	C136.931,120.823,136.386,120.655,135.7,120.314L135.7,120.314z"/>
<path fill-rule="evenodd" clip-rule="evenodd" d="M80.544,110.428c-0.226,5.26-4.388,5.485-8.508,5.485
	c-4.188,0-8.424-0.758-12.637-0.758c-4.692,0-9.375,0.328-14.055,0.777c-5.366,0.513-9.163-0.67-8.96-5.617
	c0.139-3.337,2.051-5.521,6.106-5.511l5.446,0.006c2.933,0.004,4.084-3.082,4.076-5.326l-0.191-45.633
	c-0.008-2.464-0.826-4.816-3.752-4.759l-6.207,0.124c-4.094,0.083-6.505-2.602-6.462-6.292c0.052-4.644,3.786-5.792,7.583-5.675
	c1.327,0.043,4.165,0.086,5.918,0.267c2.997,0.309,6.13,0.275,9.144,0.275c4.641,0,9.168-0.726,13.731-0.726
	c4.301,0,8.116,1.105,8.368,6.331c0.152,3.178-3.204,5.494-6.812,5.437l-4.219-0.07c-3.199-0.055-5.098,2.268-5.065,4.898
	l0.576,45.938c0.055,4.387,2.382,5.617,5.891,5.576l4.129-0.044C77.737,105.09,80.708,106.649,80.544,110.428L80.544,110.428z"/>
<g opacity="0.8">
	
		<linearGradient id="SVGID_1_" gradientUnits="userSpaceOnUse" x1="88.3242" y1="71.0654" x2="181.0718" y2="71.0654" gradientTransform="matrix(0.9992 0.0397 -0.0397 0.9992 2.3038 -5.2946)">
		<stop  offset="0.5641" style="stop-color:#428BCA"/>
		<stop  offset="0.6423" style="stop-color:#736C9A"/>
		<stop  offset="0.7229" style="stop-color:#9E5170"/>
		<stop  offset="0.8011" style="stop-color:#C03C4F"/>
		<stop  offset="0.8751" style="stop-color:#D82C37"/>
		<stop  offset="0.9433" style="stop-color:#E72329"/>
		<stop  offset="1" style="stop-color:#EC2024"/>
	</linearGradient>
	<path fill="url(#SVGID_1_)" d="M180.901,60.547c-5.19,6.025-38.511,55.298-76.152,47.936c-31.487-6.159-15.942-52.79,8.656-77.121
		c0.374-0.369,1.275-0.018,0.907,0.388C99.934,47.605,87.937,71.902,92.264,87.938c1.937,7.174,6.869,12.377,15.806,13.835
		c35.249,5.744,67.427-37.686,72.41-43.017L180.901,60.547z"/>
	<g>
		<path fill="#428BCA" d="M104.986,41.78c0.21-0.371-1.89,0.199-1.674-0.163c1.529-2.57,6.215-8.804,10.576-13.125
			c0.155-0.153,0.271-0.354,0.458-0.454c1.908-0.995,2.669,0.875,2.167,1.713c-0.102,0.171-0.225,0.331-0.34,0.499
			c-2.884,4.197-6.675,9.298-7.972,11.767c-0.205,0.389-2.225-0.533-2.421-0.135L104.986,41.78z"/>
	</g>
</g>
<g>
	<path fill-rule="evenodd" clip-rule="evenodd" fill="#428BCA" d="M114.882,26.652c3.437-10.836,10.095-17.277,14.097-19.385
		c0.985-0.519,3.526-1.717,4.544-2.012c0.125,1.167-0.418,3.858-0.693,5.023c-1.061,4.49-5.659,12.886-15.324,18.406
		C117.093,28.34,115.319,26.968,114.882,26.652z"/>
	<path fill-rule="evenodd" clip-rule="evenodd" fill="#FFFFFF" d="M118.883,24.231c-0.498-1.432,0.328-3.682,1.385-4.638
		c0.65-3.195,2.914-6.892,5.871-8.671c0.787-1.7,2.529-2.805,3.625-2.686c0.772-0.81,1.709-1.104,2.218-0.727
		c0.417,0.308,0.654,0.819,0.63,1.28c0.153,3.292-3.326,12.446-14.808,18.016C117.767,26.772,117.631,25.278,118.883,24.231z"/>
	<path fill-rule="evenodd" clip-rule="evenodd" fill="#428BCA" d="M129.497,7.841c0.86-0.844,1.828-1.074,2.43-0.725
		c1.028,0.598,1.124,1.879,0.625,2.907C131.322,9.548,130.28,8.681,129.497,7.841z"/>
	<path fill-rule="evenodd" clip-rule="evenodd" fill="#2F6797" d="M128.958,7.262c-0.103,0.146,0.333,0.026,0.169-0.049
		c0.426,0.604,0.994,1.201,1.679,1.732c0.664,0.516,1.361,0.91,2.034,1.173c0.003,0.184-0.035-0.921,0.003,0.184
		c-0.707-0.272-1.437-0.682-2.132-1.221C129.994,8.524,129.401,7.898,128.958,7.262z"/>
	<polygon fill-rule="evenodd" clip-rule="evenodd" fill="#428BCA" points="132.651,7.223 131.897,6.648 136.81,0.861 137.049,1.054 
			"/>
	<path fill-rule="evenodd" clip-rule="evenodd" fill="#FFFFFF" d="M133.193,7.381c0.062-0.501,0.043-1.092-0.07-1.621l3.809-4.806
		l0.046,0.036l-3.612,4.977C133.375,6.438,133.34,7.029,133.193,7.381z"/>
	<circle fill-rule="evenodd" clip-rule="evenodd" fill="#EC2024" cx="136.871" cy="1" r="0.618"/>
	<circle fill-rule="evenodd" clip-rule="evenodd" fill="#FFFFFF" cx="137.074" cy="0.936" r="0.307"/>
	<path fill-rule="evenodd" clip-rule="evenodd" fill="#2F6797" d="M125.322,10.077c0.126,0.062,0.241,0.018,0.273-0.085
		c0.661,0.868,1.424,1.82,2.427,2.599c1.004,0.78,2.142,1.576,3.119,2c-0.034,0.115-0.064,0.124-0.054,0.2
		c-1.025-0.44-2.123-1.239-3.174-2.055C126.863,11.92,126.011,10.988,125.322,10.077z"/>
	<path fill-rule="evenodd" clip-rule="evenodd" fill="#2F6797" d="M118.683,18.609c0.085,0.105,0.069,0.226-0.023,0.283
		c0.975,0.416,2.052,0.907,3.017,1.672c0.965,0.766,1.975,1.656,2.593,2.484c0.103-0.062,0.104-0.092,0.18-0.102
		c-0.645-0.871-1.649-1.722-2.659-2.522C120.781,19.624,119.704,19.041,118.683,18.609z"/>
	<path fill-rule="evenodd" clip-rule="evenodd" fill="#2F6797" d="M116.909,23.062c0.635,0.311,1.277,0.68,1.876,1.157
		c0.629,0.499,1.277,1.05,1.823,1.604c0.057-0.037,0.116-0.074,0.172-0.112c-0.558-0.559-1.218-1.106-1.88-1.632
		c-0.623-0.495-1.271-0.906-1.916-1.249C116.959,22.907,116.934,22.985,116.909,23.062z"/>
	<path fill-rule="evenodd" clip-rule="evenodd" fill="#428BCA" d="M118.102,28.339c-0.027-0.094,3.805-3.634,4.125-3.908
		c0.408-0.242,0.81-0.531,0.966-0.691c0.49-0.501,1.48-1.083,1.972-1.61c1.075,3.998,0.164,8.393-5.841,12.524
		C119.916,32.693,119.289,29.91,118.102,28.339z"/>
	<path fill-rule="evenodd" clip-rule="evenodd" fill="#2F6797" d="M130.109,14.788c-1.673,3.674-5.361,8.455-12.176,11.861
		c-0.009-0.007-0.022-0.105-0.018-0.263C124.343,23.009,128.129,18.521,130.109,14.788z"/>
	<path fill-rule="evenodd" clip-rule="evenodd" fill="#EC2024" d="M115.124,26.546l2.599,2.014c0.31,0.24,0.483,0.537,0.386,0.661
		l-0.098,0.128c-0.098,0.124-0.429,0.028-0.737-0.21l-2.601-2.015c-0.307-0.239-0.482-0.537-0.385-0.66l0.1-0.128
		C114.483,26.212,114.815,26.307,115.124,26.546z"/>
	<path fill-rule="evenodd" clip-rule="evenodd" fill="#FFFFFF" d="M115.853,27.245l1.708,1.324c0.203,0.158,0.325,0.342,0.271,0.411
		l-0.054,0.07c-0.053,0.068-0.263-0.004-0.465-0.163l-1.708-1.324c-0.204-0.157-0.326-0.34-0.273-0.409l0.055-0.069
		C115.44,27.015,115.649,27.088,115.853,27.245z"/>
	<path fill-rule="evenodd" clip-rule="evenodd" fill="#EC2024" d="M114.852,27.205l2.362,1.83c0.28,0.218,0.438,0.488,0.35,0.6
		l-0.089,0.116c-0.088,0.113-0.389,0.027-0.669-0.189l-2.361-1.832c-0.279-0.218-0.438-0.487-0.35-0.6l0.09-0.116
		C114.271,26.901,114.572,26.987,114.852,27.205z"/>
	<path fill-rule="evenodd" clip-rule="evenodd" fill="#428BCA" d="M115.201,26.094c0.098,0.001,2.566-4.594,2.75-4.973
		c0.132-0.454,0.312-0.916,0.429-1.109c0.361-0.599,0.678-1.703,1.064-2.312c-4.139-0.041-8.166,1.942-10.663,8.789
		C110.532,25.426,113.383,25.337,115.201,26.094z"/>
	<path fill-rule="evenodd" clip-rule="evenodd" fill="#FFFFFF" d="M121.478,25.506c1.049-0.578,2.558-1.574,3.343-2.316
		c0.622,3.173-0.429,7-4.902,10.704C121.479,31.675,122.518,29.417,121.478,25.506z"/>
	<path fill-rule="evenodd" clip-rule="evenodd" fill="#FFFFFF" d="M115.351,23.785c0.585-1.219,1.132-3.857,2.105-5.289
		c-2.791,0.167-4.667,3.242-5.23,5.496C113.268,23.592,114.398,23.445,115.351,23.785z"/>
	<circle fill-rule="evenodd" clip-rule="evenodd" fill="#2F6797" cx="125.317" cy="16.325" r="2.591"/>
	<circle fill-rule="evenodd" clip-rule="evenodd" fill="#428BCA" cx="125.317" cy="16.325" r="2.324"/>
	<circle fill-rule="evenodd" clip-rule="evenodd" fill="#18325B" cx="125.317" cy="16.325" r="1.704"/>
	<path fill-rule="evenodd" clip-rule="evenodd" fill="#FFFFFF" d="M125.25,15.016c0.906-0.008,1.589,0.922,1.254,1.802
		c-0.219,0.578-0.801,0.915-1.388,0.849C126.254,16.968,126.258,15.476,125.25,15.016z"/>
</g>
<path fill-rule="evenodd" clip-rule="evenodd" fill="#EC2024" d="M102.62,95.121C95.19,86.595,89.99,77,89.858,67.33
	c-0.33-24.257,15.926-30.214,26.791-30.214c11.162,0,16.225,6.548,20.827,11.312C142.081,43.664,111.999,105.885,102.62,95.121z"/>
</svg>
