<?xml version="1.0" ?>
<svg version="1.1" xmlns="http://www.w3.org/2000/svg" width="300px" height="150px" viewBox="0 0 300 150">
	<path d="M253.496,47.658c1.291-7.205,1.932-12.659,1.932-16.365c0-0.756-0.014-1.395-0.047-1.906
		c-0.039-0.517-0.094-1.08-0.164-1.699c1.217-0.205,2.62-0.359,4.197-0.463c1.581-0.104,2.945-0.158,4.092-0.158
		c2.08,0,4.378,0.207,6.888,0.621c0.357,1.026,0.544,2.334,0.544,3.912c0,3.021-0.438,6.692-1.295,11.019l-2.688,14.311
		c0.861-1.035,1.812-2.041,2.851-3.041c1.042-0.994,2.245-1.9,3.605-2.729c1.366-0.824,2.944-1.478,4.74-1.956
		c1.795-0.479,3.876-0.72,6.244-0.72c5.023,0,8.879,1.646,11.572,4.945c2.69,3.287,4.033,8.062,4.033,14.307
		c0,4.259-0.638,8.545-1.933,12.865c-1.298,4.322-3.465,8.238-6.519,11.739c-3.048,3.503-7.091,6.347-12.107,8.545
		c-5.021,2.196-11.235,3.291-18.626,3.291c-3.375,0-6.458-0.272-9.259-0.824c-2.798-0.549-5.453-1.297-7.968-2.26L253.496,47.658z
		 M260.6,91.414c0.574,0.204,1.308,0.36,2.208,0.467c0.896,0.097,1.811,0.154,2.745,0.154c3.157,0,5.869-0.706,8.126-2.115
		c2.265-1.405,4.128-3.188,5.601-5.349c1.469-2.166,2.549-4.551,3.229-7.16c0.685-2.605,1.022-5.145,1.022-7.617
		c0-2.4-0.521-4.479-1.561-6.229c-1.042-1.75-2.817-2.623-5.328-2.623c-3.305,0-6.143,1.336-8.507,4.013
		c-2.37,2.678-4.093,7.104-5.168,13.28L260.6,91.414z"/>
	<path d="M241.053,79.886c-0.792,4.324-1.365,8.149-1.728,11.477c-0.355,3.33-0.537,5.924-0.537,7.779
		c0,0.747-0.141,3.808-0.068,4.419c-2.363,0.414-4.696,0.617-6.996,0.617c-2.012,0-4.236-0.203-6.676-0.617
		c-0.142-0.547-0.397-9.605-0.256-10.501c-2.084,3.164-4.735,5.811-7.967,7.932c-3.229,2.129-6.997,3.188-11.302,3.188
		c-4.737,0-8.29-1.44-10.659-4.322c-2.366-2.884-3.555-6.688-3.555-11.431c0-5.146,0.81-10.117,2.425-14.924
		c1.61-4.805,4.02-9.059,7.212-12.77c3.191-3.705,7.162-6.674,11.897-8.905c4.737-2.225,10.265-3.342,16.578-3.342
		c3.156,0,6.098,0.207,8.827,0.615c2.727,0.412,5.42,0.998,8.077,1.748L241.053,79.886z M229.957,60.731
		c-0.643-0.135-1.27-0.219-1.879-0.256c-0.609-0.035-1.203-0.051-1.775-0.051c-3.449,0-6.37,0.822-8.775,2.471
		c-2.402,1.646-4.394,3.705-5.977,6.178c-1.577,2.472-2.729,5.132-3.443,7.979c-0.72,2.85-1.074,5.441-1.074,7.776
		c0,5.071,1.756,7.612,5.273,7.612c3.443,0,6.637-2.006,9.578-6.021c2.944-4.016,5.1-9.66,6.458-16.939L229.957,60.731z"/>
	<path d="M221.085,105.553c-8.173,5.711-30.568,18.036-48.464,9.426l11.702-54.44l10.912-0.109l2.076-11.941l-10.775,0.107
		l2.085-9.615c1.854-8.951,6.575-11.002,9.641-11.035c2.788-0.031,5.314,1.404,5.351,4.474c0.014,1.204-0.113,2.271-0.239,3.601
		l6.554-0.065c0.264-1.604,0.378-3.341,0.358-5.474c-0.1-8.666-8.109-14.313-16.612-14.221c-9.201,0.103-21.153,3.827-25.127,22.942
		l-16.033,76.317c-13.202,4.014-23.897,7.998-23.761,20.263c0.096,8.663,8.106,14.315,16.611,14.219
		c9.066-0.099,20.599-3.817,24.708-22.937l1.402-6.297c10.411,5.938,26.921,13.861,46.933-2.873L221.085,105.553z M149.858,127.682
		c-1.724,7.885-4.907,10.461-7.835,10.493c-3.068,0.03-5.602-2.481-5.622-4.346c-0.078-7.204,6.434-11.013,15.183-13.906
		L149.858,127.682z"/>
	<path fill="#EC2024" d="M98.31,116.811c-18.922-9.369-44.642-30.296-44.933-51.605c-0.323-23.626,15.61-29.428,26.256-29.428
		c10.942,0,15.903,6.377,20.417,11.018c4.51-4.641,9.468-11.018,20.411-11.018c10.651,0,26.58,5.802,26.257,29.428
		c-0.292,21.312-26.011,42.236-44.927,51.605c-0.672,0.332-1.205,0.496-1.74,0.496C99.51,117.307,98.978,117.143,98.31,116.811
		L98.31,116.811z"/>
	<g opacity="0.8">
		<linearGradient id="SVGID_1_" gradientUnits="userSpaceOnUse" x1="682.8613" y1="690.084" x2="773.7686" y2="690.084" gradientTransform="matrix(0.9992 0.0397 -0.0397 0.9992 -603.6269 -649.5977)">
			<stop offset="0.5641" style="stop-color:#428BCA"/>
			<stop offset="0.6423" style="stop-color:#736C9A"/>
			<stop offset="0.7229" style="stop-color:#9E5170"/>
			<stop offset="0.8011" style="stop-color:#C03C4F"/>
			<stop offset="0.8751" style="stop-color:#D82C37"/>
			<stop offset="0.9433" style="stop-color:#E72329"/>
			<stop offset="1" style="stop-color:#EC2024"/>
		</linearGradient>
		<path fill="url(#SVGID_1_)" d="M142.604,58.599c-5.085,5.869-37.744,53.859-74.634,46.688
			c-30.861-5.997-15.626-51.415,8.482-75.114c0.367-0.356,1.252-0.019,0.89,0.379C63.251,45.995,51.491,69.659,55.733,85.276
			c1.896,6.986,6.731,12.058,15.492,13.479c34.547,5.595,66.085-36.706,70.968-41.898L142.604,58.599z"/>
		<path fill="#428BCA" d="M68.202,40.322c0.208-0.361-1.85,0.191-1.639-0.16c1.498-2.503,6.09-8.573,10.365-12.783
			c0.149-0.146,0.266-0.346,0.447-0.439c1.87-0.972,2.615,0.852,2.125,1.666c-0.102,0.166-0.221,0.322-0.333,0.485
			c-2.827,4.087-6.545,9.058-7.813,11.462c-0.203,0.377-2.182-0.52-2.373-0.133L68.202,40.322z"/>
	</g>
	<g>
		<path fill="#428BCA" d="M77.901,25.585c3.371-10.556,9.894-16.827,13.815-18.879c0.968-0.505,3.455-1.671,4.455-1.959
			c0.119,1.136-0.412,3.757-0.683,4.892c-1.035,4.373-5.545,12.55-15.02,17.925C80.069,27.23,78.332,25.894,77.901,25.585z"/>
		<path fill="#FFFFFF" d="M81.824,23.228c-0.49-1.395,0.321-3.584,1.354-4.516c0.639-3.115,2.855-6.713,5.758-8.445
			c0.77-1.658,2.477-2.733,3.549-2.615c0.761-0.793,1.68-1.078,2.177-0.711c0.409,0.3,0.642,0.795,0.616,1.246
			c0.147,3.209-3.26,12.121-14.514,17.548C80.731,25.704,80.597,24.249,81.824,23.228z"/>
		<path fill="#428BCA" d="M92.226,7.266c0.842-0.82,1.793-1.045,2.383-0.707c1.009,0.582,1.099,1.83,0.611,2.834
			C94.015,8.927,92.995,8.081,92.226,7.266z"/>
		<path fill="#2F6797" d="M91.696,6.701c-0.102,0.145,0.326,0.025,0.168-0.051c0.416,0.59,0.972,1.17,1.646,1.688
			c0.652,0.506,1.331,0.889,1.991,1.145c0.004,0.182-0.034-0.896,0.004,0.182c-0.691-0.266-1.406-0.666-2.091-1.189
			C92.715,7.932,92.134,7.32,91.696,6.701z"/>
		<polygon fill="#428BCA" points="95.317,6.662 94.577,6.104 99.396,0.464 99.627,0.656 	"/>
		<path fill="#FFFFFF" d="M95.849,6.818c0.062-0.491,0.043-1.067-0.07-1.582l3.732-4.68l0.047,0.034l-3.541,4.845
			C96.024,5.898,95.99,6.475,95.849,6.818z"/>
		<circle fill="#EC2024" cx="99.455" cy="0.603" r="0.603"/>
		<path fill="#FFFFFF" d="M99.651,0.238c0.164,0,0.302,0.139,0.302,0.301c0,0.167-0.138,0.3-0.302,0.3s-0.301-0.133-0.301-0.3
			C99.353,0.377,99.487,0.238,99.651,0.238z"/>
		<path fill="#2F6797" d="M88.133,9.443c0.127,0.059,0.236,0.019,0.269-0.084c0.646,0.846,1.398,1.772,2.379,2.529
			c0.984,0.764,2.1,1.538,3.06,1.948c-0.034,0.112-0.063,0.12-0.054,0.196c-1.008-0.43-2.082-1.207-3.108-2
			C89.644,11.234,88.81,10.332,88.133,9.443z"/>
		<path fill="#2F6797" d="M81.627,17.751c0.083,0.104,0.065,0.221-0.021,0.275c0.951,0.406,2.012,0.883,2.953,1.631
			c0.945,0.744,1.938,1.611,2.545,2.418c0.098-0.062,0.1-0.088,0.174-0.098c-0.633-0.853-1.614-1.682-2.605-2.459
			C83.683,18.742,82.628,18.173,81.627,17.751z"/>
		<path fill="#2F6797" d="M79.888,22.089c0.623,0.303,1.252,0.663,1.84,1.125c0.615,0.488,1.252,1.025,1.787,1.564
			c0.057-0.035,0.114-0.072,0.166-0.111c-0.546-0.543-1.189-1.076-1.839-1.586c-0.61-0.484-1.248-0.883-1.881-1.219
			C79.937,21.939,79.912,22.013,79.888,22.089z"/>
		<path fill="#428BCA" d="M81.058,27.23c-0.022-0.092,3.732-3.541,4.045-3.808c0.396-0.237,0.793-0.519,0.943-0.673
			c0.482-0.486,1.451-1.055,1.938-1.568c1.05,3.896,0.158,8.174-5.729,12.195C82.834,31.47,82.22,28.758,81.058,27.23z"/>
		<path fill="#2F6797" d="M92.824,14.032c-1.638,3.579-5.255,8.235-11.933,11.55c-0.01-0.007-0.021-0.101-0.018-0.255
			C87.177,22.037,90.886,17.665,92.824,14.032z"/>
		<path fill="#EC2024" d="M78.14,25.484l2.549,1.959c0.304,0.236,0.473,0.524,0.375,0.646l-0.092,0.123
			c-0.099,0.122-0.425,0.027-0.727-0.203l-2.547-1.962c-0.301-0.235-0.473-0.524-0.379-0.644l0.1-0.127
			C77.513,25.159,77.835,25.25,78.14,25.484z"/>
		<path fill="#FFFFFF" d="M78.854,26.165l1.672,1.288c0.203,0.152,0.32,0.335,0.267,0.398l-0.05,0.069
			c-0.053,0.067-0.262-0.004-0.458-0.157l-1.673-1.291c-0.202-0.152-0.319-0.33-0.269-0.399l0.056-0.063
			C78.448,25.939,78.655,26.011,78.854,26.165z"/>
		<path fill="#EC2024" d="M77.872,26.124l2.314,1.782c0.272,0.212,0.431,0.478,0.342,0.585l-0.084,0.114
			c-0.086,0.107-0.383,0.025-0.655-0.188l-2.313-1.781c-0.273-0.215-0.432-0.475-0.344-0.584l0.089-0.113
			C77.302,25.828,77.597,25.913,77.872,26.124z"/>
		<path fill="#428BCA" d="M78.214,25.042c0.098,0.002,2.518-4.477,2.696-4.844c0.129-0.441,0.307-0.891,0.422-1.081
			c0.353-0.583,0.662-1.658,1.041-2.251c-4.056-0.039-8.004,1.893-10.449,8.562C73.64,24.39,76.431,24.308,78.214,25.042z"/>
		<path fill="#FFFFFF" d="M84.366,24.47c1.029-0.562,2.51-1.533,3.277-2.255c0.609,3.089-0.422,6.815-4.807,10.425
			C84.367,30.478,85.39,28.281,84.366,24.47z"/>
		<path fill="#FFFFFF" d="M78.362,22.794c0.574-1.188,1.109-3.757,2.063-5.154c-2.735,0.166-4.577,3.16-5.128,5.355
			C76.321,22.603,77.429,22.462,78.362,22.794z"/>
		<path fill="#2F6797" d="M88.128,13.003c1.405,0,2.543,1.129,2.543,2.526c0,1.392-1.138,2.521-2.543,2.521
			c-1.4,0-2.538-1.129-2.538-2.521C85.59,14.132,86.728,13.003,88.128,13.003z"/>
		<path fill="#428BCA" d="M88.128,13.264c1.26,0,2.281,1.014,2.281,2.268c0,1.246-1.021,2.261-2.281,2.261
			c-1.255,0-2.275-1.016-2.275-2.261C85.853,14.277,86.873,13.264,88.128,13.264z"/>
		<path fill="#18325B" d="M88.128,13.867c0.923,0,1.673,0.744,1.673,1.662c0,0.916-0.75,1.656-1.673,1.656
			c-0.922,0-1.669-0.74-1.669-1.656C86.459,14.611,87.206,13.867,88.128,13.867z"/>
		<path fill="#FFFFFF" d="M88.065,14.252c0.886-0.009,1.555,0.898,1.225,1.756c-0.213,0.562-0.782,0.892-1.355,0.828
			C89.046,16.156,89.05,14.702,88.065,14.252z"/>
	</g>
	<path fill="#EC2024" d="M65.885,92.271c-7.282-8.301-12.381-17.646-12.509-27.066C53.053,41.58,68.987,35.777,79.633,35.777
		c10.941,0,15.903,6.377,20.416,11.018C104.56,42.154,75.078,102.755,65.885,92.271z"/>
	<path d="M44.248,109.128c-0.222,5.125-4.302,5.345-8.341,5.345c-4.104,0-8.253-0.74-12.382-0.74c-4.603,0-9.19,0.317-13.775,0.758
		c-5.258,0.5-8.984-0.653-8.781-5.471c0.133-3.25,2.01-5.379,5.981-5.369l5.339,0.007c2.873,0.004,4.002-3.003,3.994-5.186
		l-0.188-44.445c-0.008-2.399-0.808-4.689-3.675-4.638l-6.088,0.123C2.322,49.592-0.042,46.978,0,43.382
		c0.053-4.521,3.709-5.643,7.435-5.525c1.297,0.041,4.082,0.084,5.799,0.26c2.938,0.302,6.006,0.267,8.959,0.267
		c4.552,0,8.988-0.704,13.458-0.704c4.218,0,7.955,1.074,8.201,6.162c0.15,3.098-3.14,5.354-6.676,5.297l-4.135-0.064
		c-3.136-0.055-4.996,2.205-4.964,4.769l0.564,44.745c0.055,4.27,2.334,5.469,5.775,5.428l4.045-0.045
		C41.495,103.928,44.407,105.447,44.248,109.128L44.248,109.128z"/>
</svg>