<?xml version="1.0" encoding="utf-8"?>
<!-- Generator: Adobe Illustrator 16.0.0, SVG Export Plug-In . SVG Version: 6.00 Build 0)  -->
<!DOCTYPE svg PUBLIC "-//W3C//DTD SVG 1.1 Basic//EN" "http://www.w3.org/Graphics/SVG/1.1/DTD/svg11-basic.dtd">
<svg version="1.1" baseProfile="basic" id="Layer_1"
	 xmlns="http://www.w3.org/2000/svg" xmlns:xlink="http://www.w3.org/1999/xlink" x="0px" y="0px" width="380px" height="160px"
	 viewBox="0 0 380 160" xml:space="preserve">
<g>
	<path fill="#CD3A28" d="M115.67,37.361c0.498-0.056,0.999-0.17,1.494-0.149c0.767,0.032,1.542,0.098,2.292,0.254
		c1.526,0.316,3.063,0.627,4.555,1.076c2.769,0.833,5.25,2.25,7.56,3.97c2.25,1.676,4.197,3.645,5.706,6.028
		c0.395,0.624,0.57,0.618,0.986,0.044c1.589-2.192,3.524-4.037,5.7-5.633c2.43-1.783,5.039-3.275,7.926-4.139
		c1.894-0.564,3.871-0.913,5.836-1.144c2.422-0.283,4.883-0.153,7.264,0.332c1.861,0.379,3.681,0.989,5.451,1.774
		c2.271,1.007,4.279,2.365,6.222,3.861c0.35,0.27,0.569,0.699,0.888,1.017c1.727,1.727,3.228,3.646,4.452,5.739
		c0.869,1.484,1.525,3.111,2.121,4.731c0.508,1.379,0.854,2.826,1.157,4.268c0.218,1.037,0.29,2.111,0.348,3.172
		c0.08,1.482,0.165,2.972,0.1,4.45c-0.057,1.288-0.287,2.572-0.5,3.85c-0.205,1.231-0.431,2.466-0.746,3.673
		c-0.245,0.94-0.67,1.834-0.971,2.763c-1.177,3.639-3.07,6.903-5.228,10.027c-1.21,1.752-2.406,3.52-3.718,5.194
		c-1.937,2.478-4.102,4.76-6.396,6.907c-1.914,1.792-3.886,3.521-5.831,5.279c-3.488,3.15-7.345,5.815-11.195,8.492
		c-3.404,2.365-6.986,4.434-10.654,6.355c-0.479,0.251-0.984,0.458-1.492,0.645c-0.143,0.053-0.36-0.004-0.509-0.08
		c-2.696-1.389-5.408-2.747-8.071-4.197c-1.555-0.846-3.071-1.777-4.527-2.783c-3.111-2.149-6.173-4.375-9.256-6.567
		c-0.798-0.567-1.619-1.106-2.389-1.712c-0.506-0.396-0.926-0.901-1.403-1.337c-1.722-1.563-3.556-3.021-5.151-4.701
		c-2.204-2.323-4.206-4.837-6.344-7.227c-1.627-1.817-2.958-3.847-4.226-5.906c-1.046-1.699-1.89-3.529-2.758-5.334
		c-1.107-2.301-1.833-4.754-2.377-7.229c-0.433-1.963-0.938-3.941-0.888-5.995c0.021-0.852-0.162-1.706-0.175-2.56
		c-0.012-0.858-0.007-1.731,0.132-2.575c0.329-2.005,0.536-4.065,1.168-5.979c1.008-3.05,2.354-5.971,4.355-8.554
		c1.75-2.259,3.752-4.248,6.057-5.91c1.528-1.101,3.245-1.884,5.022-2.542C110.248,38.054,112.911,37.485,115.67,37.361z"/>
	<path fill="#1A1A1A" d="M44.426,52.79c-1.047,0-2.129-0.167-3.131,0.044c-1.152,0.242-2.19-0.079-3.262-0.24
		c-1.115-0.167-2.191-0.617-2.948-1.457c-0.842-0.935-1.851-1.849-1.66-3.342c0.078-0.612,0.023-1.24,0.087-1.854
		c0.168-1.63,1.048-2.746,2.461-3.562c1.232-0.712,2.569-0.72,3.887-0.746c1.962-0.039,3.927,0.078,5.891,0.135
		c2.27,0.065,4.539,0.19,6.809,0.196c4,0.01,7.998-0.034,11.997-0.092c1.679-0.024,3.363-0.059,5.027-0.245
		c1.31-0.147,2.581-0.109,3.866,0.102c2.025,0.332,3.712,1.755,4.193,3.948c0.229,1.043,0.309,2.075,0.055,3.044
		c-0.452,1.72-1.525,2.996-3.258,3.65c-1.641,0.618-3.336,0.543-5.034,0.499c-1.275-0.034-2.55-0.086-3.825-0.112
		c-1.668-0.035-3.27,1.396-3.368,3.049c-0.115,1.942-0.226,3.887-0.254,5.831c-0.025,1.767,0.081,3.533,0.096,5.3
		c0.013,1.312-0.043,2.625-0.042,3.938c0.001,1.669,0.035,3.338,0.044,5.007c0.012,1.85-0.004,3.698,0.021,5.548
		c0.014,1.08,0.106,2.16,0.12,3.24c0.014,1.169-0.042,2.338-0.031,3.506c0.006,0.617,0.125,1.234,0.13,1.853
		c0.008,0.961-0.035,1.923-0.058,2.884c-0.037,1.576-0.088,3.151-0.107,4.729c-0.021,1.68-0.052,3.36-0.002,5.038
		c0.044,1.483,0.219,2.959,0.807,4.351c0.404,0.956,1.132,1.548,2.119,1.805c1.54,0.397,3.113,0.402,4.674,0.205
		c1.231-0.156,2.435-0.123,3.664,0.028c1.442,0.177,2.6,0.798,3.509,1.888c0.608,0.729,1.005,1.522,1.025,2.558
		c0.026,1.281-0.04,2.521-0.674,3.632c-0.308,0.54-0.798,1.032-1.317,1.385c-0.992,0.674-2.137,0.938-3.351,0.92
		c-2.029-0.031-4.06-0.005-6.089-0.053c-1.461-0.032-2.919-0.172-4.381-0.217c-2.038-0.062-4.078-0.15-6.115-0.103
		c-3.938,0.094-7.874,0.272-11.811,0.423c-1.633,0.062-3.268,0.23-4.896,0.185c-3.093-0.089-4.886-2.015-5.357-4.849
		c-0.255-1.523,0.124-3.021,1.124-4.219c0.444-0.532,1.167-0.897,1.833-1.168c1.692-0.688,3.501-0.599,5.275-0.521
		c1.812,0.076,3.611,0.161,5.323-0.567c2.039-0.869,2.62-2.139,2.49-4.339c-0.05-0.854,0.085-1.72,0.085-2.58
		c-0.001-6.085-0.02-12.17-0.023-18.255c-0.001-1.72,0.024-3.439,0.033-5.161c0.005-1.035,0.085-2.081-0.02-3.104
		c-0.116-1.127,0.117-2.231,0.047-3.354c-0.071-1.126-0.008-2.26-0.021-3.391c-0.021-1.838-0.079-3.676-0.081-5.515
		c-0.002-1.596,0.083-3.191,0.066-4.786c-0.009-0.855-0.099-1.719-0.249-2.562c-0.208-1.161-0.956-1.93-2.086-2.191
		c-1.077-0.25-2.19-0.348-3.287-0.513C44.438,52.668,44.432,52.729,44.426,52.79z"/>
	<path fill="#1A1A1A" d="M262.041,104.262c-8.349,5.871-31.22,18.537-49.494,9.689l11.95-55.95l11.144-0.115l2.121-12.272
		l-11.006,0.112l2.133-9.88c1.894-9.201,6.713-11.31,9.842-11.342c2.851-0.032,5.433,1.445,5.468,4.6
		c0.014,1.234-0.119,2.328-0.246,3.701l6.69-0.071c0.271-1.649,0.39-3.433,0.365-5.622c-0.098-8.908-8.279-14.711-16.963-14.616
		c-9.396,0.103-21.604,3.933-25.662,23.578l-16.375,78.431c-13.482,4.123-24.405,8.219-24.268,20.822
		c0.1,8.904,8.281,14.711,16.967,14.613c9.258-0.101,21.035-3.925,25.232-23.57l1.434-6.471c10.635,6.1,27.494,14.243,47.93-2.953
		L262.041,104.262z M189.299,127.004c-1.76,8.104-5.009,10.75-8,10.783c-3.135,0.035-5.723-2.549-5.744-4.463
		c-0.078-7.404,6.57-11.316,15.508-14.291L189.299,127.004z"/>
	<path fill="#1A1A1A" d="M282.434,77.885c-0.807,4.443-1.394,8.375-1.763,11.797c-0.364,3.418-0.548,6.086-0.548,7.99
		c0,0.773-0.145,3.914-0.068,4.547c-2.419,0.424-4.802,0.633-7.146,0.633c-2.054,0-4.33-0.209-6.818-0.633
		c-0.146-0.562-0.407-9.873-0.26-10.793c-2.128,3.246-4.837,5.965-8.135,8.15c-3.3,2.186-7.147,3.274-11.547,3.274
		c-4.837,0-8.466-1.479-10.884-4.44c-2.418-2.965-3.629-6.873-3.629-11.746c0-5.289,0.825-10.4,2.474-15.341
		c1.647-4.937,4.105-9.309,7.366-13.12c3.263-3.811,7.312-6.858,12.15-9.153c4.837-2.289,10.48-3.437,16.934-3.437
		c3.223,0,6.227,0.213,9.016,0.636c2.782,0.422,5.532,1.023,8.246,1.797L282.434,77.885z M271.105,58.204
		c-0.66-0.139-1.3-0.228-1.923-0.263c-0.62-0.036-1.228-0.055-1.812-0.055c-3.521,0-6.505,0.846-8.963,2.54
		c-2.453,1.691-4.487,3.809-6.102,6.348c-1.612,2.542-2.788,5.275-3.518,8.202c-0.732,2.926-1.101,5.591-1.101,7.988
		c0,5.217,1.793,7.824,5.388,7.824c3.519,0,6.778-2.061,9.785-6.186c3.006-4.129,5.204-9.929,6.596-17.408L271.105,58.204z"/>
	<path fill="#1A1A1A" d="M295.143,44.767c1.318-7.405,1.977-13.013,1.977-16.821c0-0.773-0.02-1.43-0.051-1.957
		c-0.04-0.53-0.096-1.111-0.167-1.747c1.243-0.211,2.677-0.368,4.288-0.477c1.611-0.104,3.007-0.159,4.177-0.159
		c2.126,0,4.471,0.214,7.037,0.636c0.362,1.058,0.551,2.397,0.551,4.019c0,3.107-0.443,6.879-1.319,11.325l-2.748,14.706
		c0.881-1.06,1.853-2.097,2.913-3.122c1.062-1.022,2.291-1.956,3.683-2.803c1.395-0.849,3.007-1.519,4.839-2.011
		c1.833-0.494,3.958-0.741,6.377-0.741c5.131,0,9.071,1.692,11.821,5.082c2.746,3.381,4.121,8.287,4.121,14.707
		c0,4.373-0.657,8.778-1.977,13.224c-1.323,4.441-3.54,8.465-6.656,12.062c-3.115,3.598-7.24,6.522-12.369,8.778
		c-5.129,2.26-11.473,3.385-19.02,3.385c-3.448,0-6.598-0.278-9.457-0.848c-2.856-0.562-5.567-1.336-8.136-2.322L295.143,44.767z
		 M302.398,89.734c0.586,0.211,1.335,0.369,2.255,0.477c0.916,0.102,1.849,0.16,2.802,0.16c3.225,0,5.994-0.723,8.301-2.172
		c2.312-1.445,4.216-3.277,5.719-5.5c1.5-2.225,2.604-4.673,3.299-7.354c0.695-2.68,1.043-5.289,1.043-7.828
		c0-2.471-0.531-4.604-1.592-6.401c-1.065-1.8-2.881-2.697-5.44-2.697c-3.374,0-6.273,1.373-8.688,4.124
		c-2.42,2.751-4.179,7.3-5.277,13.649L302.398,89.734z"/>
</g>
</svg>
